<?xml version="1.0" standalone="no"?>
<!DOCTYPE svg PUBLIC "-//W3C//DTD SVG 20010904//EN"
 "http://www.w3.org/TR/2001/REC-SVG-20010904/DTD/svg10.dtd">
<svg version="1.0" xmlns="http://www.w3.org/2000/svg"
 width="642.000000pt" height="642.000000pt" viewBox="0 0 642.000000 642.000000"
 preserveAspectRatio="xMidYMid meet">

<g transform="translate(0.000000,642.000000) scale(0.100000,-0.100000)"
fill="#000000" stroke="none">
<path d="M1728 5411 c-123 -40 -211 -118 -283 -252 -38 -72 -39 -77 -41 -179
-1 -58 -7 -134 -13 -168 -7 -35 -9 -77 -6 -94 4 -17 3 -33 -3 -37 -5 -3 -13
-21 -17 -40 -5 -23 -4 -31 4 -27 6 4 11 17 11 28 0 12 3 18 7 14 12 -11 2 -90
-13 -107 -18 -20 -18 -35 0 -42 9 -4 14 -22 14 -57 0 -35 -5 -53 -14 -57 -16
-6 -19 -33 -4 -33 6 0 10 -9 10 -20 0 -11 -4 -20 -10 -20 -5 0 -10 -5 -10 -11
0 -5 5 -7 10 -4 6 3 10 1 10 -5 0 -6 -7 -13 -15 -16 -12 -5 -13 -10 -4 -20 6
-8 8 -25 5 -39 -4 -15 -2 -25 5 -25 7 0 8 -14 4 -41 -6 -33 -4 -40 6 -34 7 5
6 -1 -4 -15 -12 -17 -13 -27 -6 -36 6 -8 7 -20 2 -31 -5 -10 -8 -53 -7 -95 2
-45 -1 -78 -6 -78 -6 0 -10 7 -10 16 0 9 -5 12 -12 8 -8 -5 -5 -13 10 -25 27
-21 28 -29 5 -30 -11 0 -13 -3 -5 -6 16 -6 15 -23 -2 -23 -10 0 -12 -7 -8 -22
5 -19 7 -20 10 -5 8 37 20 14 18 -33 -1 -27 2 -50 7 -50 4 0 4 -8 -2 -17 -5
-9 -7 -41 -4 -70 5 -49 4 -53 -16 -53 -11 0 -21 -4 -21 -9 0 -5 8 -8 17 -7 19
1 25 -24 8 -37 -7 -6 -6 -10 3 -14 6 -2 9 -9 6 -14 -4 -6 -11 -6 -19 1 -11 9
-14 7 -12 -9 1 -13 6 -20 14 -17 7 3 13 0 14 -7 0 -7 2 -21 4 -32 3 -15 -1
-21 -15 -21 -14 0 -20 7 -20 23 0 13 -4 23 -10 23 -5 0 -10 -7 -10 -15 0 -25
22 -53 39 -48 13 3 16 -5 16 -41 -1 -25 -4 -48 -8 -52 -4 -4 -7 0 -7 9 0 10
-5 17 -11 17 -5 0 -7 -5 -4 -11 4 -5 -1 -19 -11 -30 -10 -11 -12 -19 -6 -19 7
0 12 5 12 10 0 6 7 10 15 10 10 0 15 -11 16 -37 2 -54 -2 -78 -12 -81 -5 -2
-9 -8 -9 -13 0 -6 5 -7 10 -4 11 7 6 -251 -7 -355 -4 -30 -7 -70 -7 -87 -1
-18 -4 -33 -8 -33 -5 0 -8 -7 -8 -16 0 -9 -9 -27 -20 -41 -11 -14 -20 -34 -20
-44 0 -11 -4 -19 -10 -19 -5 0 -10 -9 -10 -20 0 -11 -4 -20 -10 -20 -5 0 -10
-11 -10 -25 0 -14 -7 -28 -15 -31 -8 -4 -15 -11 -15 -18 0 -6 -11 -24 -25 -40
-25 -29 -29 -39 -26 -63 1 -7 -4 -10 -11 -8 -8 3 -14 -4 -15 -21 0 -15 -7 -30
-14 -35 -8 -4 -14 -22 -15 -40 -1 -17 -6 -34 -10 -38 -8 -5 -23 -34 -38 -71
-3 -8 -16 -31 -27 -50 -12 -19 -44 -80 -71 -135 -27 -55 -54 -109 -60 -120
-18 -30 -103 -205 -123 -250 -9 -22 -21 -48 -26 -57 -18 -35 -10 -154 17 -240
27 -86 76 -192 94 -203 5 -3 24 -35 41 -71 19 -40 49 -80 79 -107 49 -43 168
-108 230 -126 52 -14 351 -31 535 -31 168 1 920 -5 2085 -15 1063 -9 1184 -8
1265 10 80 18 213 80 267 125 43 35 151 223 166 290 28 123 41 596 58 2210 1
129 5 287 8 350 8 192 7 837 -2 862 -5 13 -15 64 -22 113 -16 107 -36 137
-122 187 -32 18 -58 36 -58 41 0 4 -7 7 -15 7 -8 0 -15 4 -15 8 0 4 -17 14
-37 21 -21 7 -69 29 -107 47 -39 19 -77 34 -86 34 -9 0 -25 9 -35 20 -10 11
-33 22 -51 26 -19 3 -34 11 -34 16 0 6 -6 6 -14 -1 -11 -10 -16 -8 -21 8 -3
12 -22 33 -42 48 -19 15 -49 51 -65 80 -59 104 -193 191 -312 200 -45 3 -57 2
-46 -6 8 -6 23 -11 34 -11 10 0 46 -13 81 -30 63 -30 124 -91 144 -143 14 -35
8 -100 -9 -105 -9 -3 -11 1 -7 13 5 12 1 18 -14 22 -11 3 -18 11 -15 19 3 7
-5 21 -18 31 -12 10 -21 24 -18 31 2 8 -8 12 -32 12 -35 0 -48 13 -23 23 7 3
5 6 -5 6 -10 1 -27 10 -38 21 -11 11 -29 20 -39 20 -11 0 -23 5 -27 11 -4 7
-32 9 -80 6 -50 -3 -72 -2 -67 6 4 7 -8 8 -38 3 -65 -11 -279 -14 -286 -3 -3
4 -12 5 -22 1 -18 -7 -794 -7 -966 1 -60 2 -162 8 -225 12 -63 4 -133 7 -154
6 -24 -1 -45 5 -55 15 -15 15 -15 15 1 10 9 -4 19 -1 21 7 5 10 -25 14 -141
19 -81 4 -214 11 -295 16 -239 16 -422 12 -489 -9z m57 -41 c-10 -11 -26 -20
-35 -20 -9 0 -29 -13 -45 -30 -16 -16 -34 -30 -41 -30 -11 0 -38 -36 -75 -101
-9 -16 -22 -35 -28 -43 -7 -8 -13 -24 -14 -36 -2 -26 -32 -46 -43 -28 -13 21
-7 93 11 128 44 86 177 178 259 179 28 1 29 1 11 -19z m805 10 c0 -6 -7 -13
-15 -16 -20 -8 -48 3 -40 16 8 13 55 13 55 0z m-55 -240 c-3 -5 -15 -10 -26
-10 -28 0 -68 -28 -85 -61 -8 -16 -28 -36 -45 -44 -29 -15 -28 -13 17 42 26
32 48 60 50 62 3 4 63 18 82 20 7 1 10 -3 7 -9z m98 -130 c-2 -27 -15 -678
-17 -845 l-1 -100 -54 -3 c-30 -2 -65 -1 -78 3 l-23 5 6 200 c3 109 6 266 7
347 l2 148 -115 8 c-63 4 -121 9 -127 12 -8 2 -13 22 -13 49 0 25 6 48 13 53
6 4 40 9 75 10 86 4 155 39 190 99 l27 44 55 -2 c52 -3 55 -4 53 -28z m-433
-8 c0 -4 -12 -13 -28 -19 -15 -7 -36 -27 -46 -44 -21 -35 -30 -33 -20 6 9 35
94 88 94 57z m2443 -149 c-7 -2 -19 -2 -25 0 -7 3 -2 5 12 5 14 0 19 -2 13 -5z
m-78 -33 c3 -6 -1 -7 -9 -4 -18 7 -21 14 -7 14 6 0 13 -4 16 -10z m12 -46 c-3
-3 -12 -4 -19 -1 -8 3 -5 6 6 6 11 1 17 -2 13 -5z m-29 -61 c-10 -2 -26 -2
-35 0 -10 3 -2 5 17 5 19 0 27 -2 18 -5z m85 -20 c-7 -2 -19 -2 -25 0 -7 3 -2
5 12 5 14 0 19 -2 13 -5z m-260 -60 c-7 -2 -19 -2 -25 0 -7 3 -2 5 12 5 14 0
19 -2 13 -5z m17 -33 c0 -5 -5 -10 -11 -10 -5 0 -7 5 -4 10 3 6 8 10 11 10 2
0 4 -4 4 -10z m185 -8 c-3 -3 -11 0 -18 7 -9 10 -8 11 6 5 10 -3 15 -9 12 -12z
m-578 2 c-3 -3 -12 -4 -19 -1 -8 3 -5 6 6 6 11 1 17 -2 13 -5z m173 -16 c-32
-12 -51 -3 -20 10 14 5 29 7 34 4 5 -3 -1 -9 -14 -14z m565 2 c3 -5 -1 -10
-10 -10 -9 0 -13 5 -10 10 3 6 8 10 10 10 2 0 7 -4 10 -10z m-165 -14 c0 -3
-4 -8 -10 -11 -5 -3 -10 -1 -10 4 0 6 5 11 10 11 6 0 10 -2 10 -4z m-50 -10
c0 -3 -4 -8 -10 -11 -5 -3 -10 -1 -10 4 0 6 5 11 10 11 6 0 10 -2 10 -4z m-85
-45 c-6 -5 -25 10 -25 20 0 5 6 4 14 -3 8 -7 12 -15 11 -17z m60 11 c-3 -3
-11 0 -18 7 -9 10 -8 11 6 5 10 -3 15 -9 12 -12z m135 8 c0 -5 -4 -10 -10 -10
-5 0 -10 5 -10 10 0 6 5 10 10 10 6 0 10 -4 10 -10z m55 -10 c3 -5 1 -10 -4
-10 -6 0 -11 5 -11 10 0 6 2 10 4 10 3 0 8 -4 11 -10z m-368 -6 c-3 -3 -12 -4
-19 -1 -8 3 -5 6 6 6 11 1 17 -2 13 -5z m263 -15 c0 -3 -11 -9 -25 -11 -19 -4
-23 -2 -15 7 11 13 40 16 40 4z m-510 -14 c10 -12 10 -15 -2 -15 -8 0 -15 7
-15 15 0 8 1 15 2 15 2 0 8 -7 15 -15z m45 5 c3 -5 1 -10 -4 -10 -6 0 -11 5
-11 10 0 6 2 10 4 10 3 0 8 -4 11 -10z m255 0 c0 -5 -4 -10 -10 -10 -5 0 -10
5 -10 10 0 6 5 10 10 10 6 0 10 -4 10 -10z m90 0 c8 -5 11 -10 5 -10 -5 0 -17
5 -25 10 -8 5 -10 10 -5 10 6 0 17 -5 25 -10z m-271 -13 c-2 -1 -13 -9 -24
-17 -19 -14 -19 -14 -6 3 7 9 18 17 24 17 6 0 8 -1 6 -3z m118 -3 c-3 -3 -12
-4 -19 -1 -8 3 -5 6 6 6 11 1 17 -2 13 -5z m-80 -10 c-3 -3 -12 -4 -19 -1 -8
3 -5 6 6 6 11 1 17 -2 13 -5z m-1877 -14 c0 -5 -5 -10 -11 -10 -5 0 -7 5 -4
10 3 6 8 10 11 10 2 0 4 -4 4 -10z m1987 4 c-3 -3 -12 -4 -19 -1 -8 3 -5 6 6
6 11 1 17 -2 13 -5z m37 -15 c-31 -12 -40 -9 -20 6 10 8 24 11 29 8 6 -4 2
-10 -9 -14z m183 15 c-3 -3 -12 -4 -19 -1 -8 3 -5 6 6 6 11 1 17 -2 13 -5z
m-807 -14 c0 -5 -5 -10 -11 -10 -5 0 -7 5 -4 10 3 6 8 10 11 10 2 0 4 -4 4
-10z m80 0 c-8 -5 -22 -10 -30 -10 -13 0 -13 1 0 10 8 5 22 10 30 10 13 0 13
-1 0 -10z m820 -28 c-12 -2 -27 2 -34 8 -8 9 -5 11 13 5 18 -6 22 -4 15 6 -6
10 -3 10 11 -1 18 -14 17 -15 -5 -18z m90 24 c0 -2 -9 -6 -20 -9 -11 -3 -18
-1 -14 4 5 9 34 13 34 5z m-220 -16 c0 -5 -5 -10 -11 -10 -5 0 -7 5 -4 10 3 6
8 10 11 10 2 0 4 -4 4 -10z m-553 -6 c-3 -3 -12 -4 -19 -1 -8 3 -5 6 6 6 11 1
17 -2 13 -5z m63 -14 c0 -5 -8 -10 -17 -10 -15 0 -16 2 -3 10 19 12 20 12 20
0z m260 -1 c0 -9 -53 -19 -65 -11 -5 3 1 9 15 12 34 8 50 8 50 -1z m276 -14
c20 -19 5 -19 -20 0 -11 9 -14 15 -7 15 7 0 19 -7 27 -15z m219 -5 c-3 -5 -14
-10 -23 -9 -14 0 -13 2 3 9 27 11 27 11 20 0z m-2435 -20 c0 -5 -5 -10 -11
-10 -5 0 -7 5 -4 10 3 6 8 10 11 10 2 0 4 -4 4 -10z m1200 6 c0 -2 -7 -9 -15
-16 -13 -11 -14 -10 -9 4 5 14 24 23 24 12z m552 -11 c3 0 10 -4 15 -9 5 -5
-2 -6 -17 -3 -14 4 -29 7 -33 7 -5 0 -5 5 -2 10 4 6 12 7 18 3 7 -4 15 -8 19
-8z m211 8 c-7 -2 -19 -2 -25 0 -7 3 -2 5 12 5 14 0 19 -2 13 -5z m232 -13 c8
-13 -5 -13 -25 0 -13 8 -13 10 2 10 9 0 20 -4 23 -10z m40 0 c3 -5 2 -10 -4
-10 -5 0 -13 5 -16 10 -3 6 -2 10 4 10 5 0 13 -4 16 -10z m-907 -15 c-10 -10
-48 -14 -48 -5 0 5 10 10 23 12 24 4 34 1 25 -7z m187 5 c-3 -5 -12 -10 -18
-10 -7 0 -6 4 3 10 19 12 23 12 15 0z m105 -7 c-8 -3 -22 -11 -30 -17 -13 -10
-13 -9 -1 7 7 9 21 17 30 16 13 0 14 -1 1 -6z m445 -3 c3 -5 2 -10 -4 -10 -5
0 -13 5 -16 10 -3 6 -2 10 4 10 5 0 13 -4 16 -10z m90 0 c-3 -5 -1 -10 6 -10
7 0 10 -2 8 -5 -3 -2 -15 -2 -28 2 -17 4 -19 8 -9 14 18 12 31 11 23 -1z m174
-6 c13 -12 -8 -10 -29 2 l-25 15 25 -7 c14 -3 27 -8 29 -10z m84 9 c-7 -2 -19
-2 -25 0 -7 3 -2 5 12 5 14 0 19 -2 13 -5z m-1048 -13 c3 -5 1 -10 -4 -10 -6
0 -11 5 -11 10 0 6 2 10 4 10 3 0 8 -4 11 -10z m740 -8 c-3 -3 -11 0 -18 7 -9
10 -8 11 6 5 10 -3 15 -9 12 -12z m-172 1 c-7 -2 -19 -2 -25 0 -7 3 -2 5 12 5
14 0 19 -2 13 -5z m294 1 c-3 -3 -12 -4 -19 -1 -8 3 -5 6 6 6 11 1 17 -2 13
-5z m-2227 -8 c0 -3 -4 -8 -10 -11 -5 -3 -10 -1 -10 4 0 6 5 11 10 11 6 0 10
-2 10 -4z m1430 -16 c0 -5 -7 -10 -16 -10 -8 0 -12 5 -9 10 3 6 10 10 16 10 5
0 9 -4 9 -10z m140 0 c0 -5 -4 -10 -10 -10 -5 0 -10 5 -10 10 0 6 5 10 10 10
6 0 10 -4 10 -10z m410 6 c0 -2 -9 -6 -20 -9 -11 -3 -20 -1 -20 4 0 5 9 9 20
9 11 0 20 -2 20 -4z m280 -19 c11 -5 9 -6 -4 -4 -11 1 -21 9 -23 17 -3 10 -2
11 4 4 4 -6 15 -14 23 -17z m-600 -1 c0 -2 -7 -6 -15 -10 -8 -3 -15 -1 -15 4
0 6 7 10 15 10 8 0 15 -2 15 -4z m340 -6 c-8 -5 -22 -9 -30 -9 -10 0 -8 3 5 9
27 12 43 12 25 0z m80 -2 c0 -4 -11 -7 -24 -6 -14 1 -23 5 -21 8 5 9 45 7 45
-2z m220 8 c0 -3 -4 -8 -10 -11 -5 -3 -10 -1 -10 4 0 6 5 11 10 11 6 0 10 -2
10 -4z m-355 -16 c-3 -5 -12 -10 -18 -10 -7 0 -6 4 3 10 19 12 23 12 15 0z
m205 0 c-8 -5 -19 -10 -25 -10 -5 0 -3 5 5 10 8 5 20 10 25 10 6 0 3 -5 -5
-10z m-720 -10 c0 -5 -5 -10 -11 -10 -5 0 -7 5 -4 10 3 6 8 10 11 10 2 0 4 -4
4 -10z m310 6 c0 -3 -4 -8 -10 -11 -5 -3 -10 -1 -10 4 0 6 5 11 10 11 6 0 10
-2 10 -4z m474 -11 c-25 -19 -38 -19 -22 0 7 8 19 14 27 15 11 0 9 -4 -5 -15z
m211 -4 c-3 -6 -11 -11 -16 -11 -5 0 -4 6 3 14 14 16 24 13 13 -3z m-392 2
c-7 -2 -19 -2 -25 0 -7 3 -2 5 12 5 14 0 19 -2 13 -5z m317 -9 c0 -2 -7 -4
-15 -4 -8 0 -15 4 -15 10 0 5 7 7 15 4 8 -4 15 -8 15 -10z m-1140 -1 c-8 -4
-20 -13 -27 -22 -13 -17 -16 -12 -7 13 3 9 16 16 28 15 15 0 16 -2 6 -6z m120
-3 c0 -5 -2 -10 -4 -10 -3 0 -8 5 -11 10 -3 6 -1 10 4 10 6 0 11 -4 11 -10z
m220 0 c0 -5 -11 -12 -25 -16 -14 -3 -30 -14 -35 -23 -5 -9 -10 -11 -10 -4 0
12 47 53 61 53 5 0 9 -4 9 -10z m104 -1 c-4 -7 -44 0 -44 7 0 2 11 3 24 2 14
-1 23 -5 20 -9z m56 4 c0 -5 -11 -13 -25 -20 -14 -6 -25 -8 -25 -4 0 5 10 13
23 19 28 14 27 13 27 5z m104 -9 c6 -15 4 -15 -11 -3 -10 7 -20 15 -22 16 -2
2 3 3 11 3 9 0 19 -7 22 -16z m163 10 c-3 -3 -12 -4 -19 -1 -8 3 -5 6 6 6 11
1 17 -2 13 -5z m100 0 c-3 -3 -12 -4 -19 -1 -8 3 -5 6 6 6 11 1 17 -2 13 -5z
m223 2 c0 -11 -19 -15 -25 -6 -3 5 1 10 9 10 9 0 16 -2 16 -4z m-2310 -22 c0
-8 -5 -12 -10 -9 -6 4 -8 11 -5 16 9 14 15 11 15 -7z m1165 -3 c-3 -6 -11 -11
-17 -11 -6 0 -6 6 2 15 14 17 26 13 15 -4z m465 3 c0 -2 -9 -4 -20 -4 -11 0
-20 4 -20 9 0 5 9 7 20 4 11 -3 20 -7 20 -9z m-605 -3 c-15 -13 -65 -23 -65
-12 0 5 12 12 28 14 15 2 31 5 37 6 5 0 5 -2 0 -8z m385 -1 c-19 -13 -30 -13
-30 0 0 6 10 10 23 10 18 0 19 -2 7 -10z m44 -6 c3 -8 2 -12 -4 -9 -6 3 -10
10 -10 16 0 14 7 11 14 -7z m436 9 c-14 -3 -31 -10 -38 -15 -9 -8 -11 -7 -6 6
4 10 17 16 38 15 27 -2 28 -2 6 -6z m140 -9 c0 -2 -9 -4 -21 -4 -11 0 -18 4
-14 10 5 8 35 3 35 -6z m425 -2 c-3 -3 -11 0 -18 7 -9 10 -8 11 6 5 10 -3 15
-9 12 -12z m-355 -2 c0 -5 -6 -7 -14 -4 -8 3 -17 0 -21 -5 -3 -6 -11 -8 -18
-4 -7 4 -4 9 9 14 27 11 44 11 44 -1z m150 -11 c0 -11 -3 -11 -24 -3 -23 9
-20 23 4 17 11 -3 20 -9 20 -14z m148 10 c-11 -6 -24 -6 -34 -1 -12 7 -8 9 18
10 26 1 30 -1 16 -9z m-1038 -11 c0 -11 -22 -10 -39 1 -10 7 -7 9 12 8 15 -1
27 -5 27 -9z m300 1 c0 -11 -21 -11 -39 0 -9 6 -5 9 13 9 14 0 26 -4 26 -9z
m506 -4 c-23 -17 -36 -19 -36 -6 0 5 8 12 18 14 32 9 37 6 18 -8z m-902 -16
c-3 -5 -9 -7 -14 -4 -5 3 -20 1 -32 -5 l-23 -11 23 20 c22 19 58 19 46 0z
m296 17 c0 -11 -19 -15 -25 -6 -3 5 1 10 9 10 9 0 16 -2 16 -4z m170 -6 c0 -5
-4 -10 -10 -10 -5 0 -10 5 -10 10 0 6 5 10 10 10 6 0 10 -4 10 -10z m40 6 c0
-2 -7 -6 -15 -10 -8 -3 -15 -1 -15 4 0 6 7 10 15 10 8 0 15 -2 15 -4z m55 -6
c3 -5 -1 -10 -10 -10 -9 0 -13 5 -10 10 3 6 8 10 10 10 2 0 7 -4 10 -10z m605
0 c0 -5 -4 -10 -10 -10 -5 0 -10 5 -10 10 0 6 5 10 10 10 6 0 10 -4 10 -10z
m-3295 -10 c3 -5 2 -10 -4 -10 -5 0 -13 5 -16 10 -3 6 -2 10 4 10 5 0 13 -4
16 -10z m875 3 c0 -14 -19 -38 -25 -32 -8 8 5 39 16 39 5 0 9 -3 9 -7z m930 3
c0 -3 -4 -8 -10 -11 -5 -3 -10 -1 -10 4 0 6 5 11 10 11 6 0 10 -2 10 -4z m130
-6 c0 -5 -4 -10 -10 -10 -5 0 -10 5 -10 10 0 6 5 10 10 10 6 0 10 -4 10 -10z
m250 6 c0 -3 -4 -8 -10 -11 -5 -3 -10 -1 -10 4 0 6 5 11 10 11 6 0 10 -2 10
-4z m105 -6 c-28 -12 -37 -12 -30 0 3 6 16 10 28 9 21 0 21 -1 2 -9z m475 0
c8 -5 11 -10 5 -10 -5 0 -17 5 -25 10 -8 5 -10 10 -5 10 6 0 17 -5 25 -10z
m35 0 c3 -5 1 -10 -4 -10 -6 0 -11 5 -11 10 0 6 2 10 4 10 3 0 8 -4 11 -10z
m77 -5 c0 -5 -5 -10 -11 -11 -8 -2 -7 -1 0 3 8 4 7 8 -2 15 -11 8 -11 9 -1 6
8 -2 14 -8 14 -13z m-527 -7 c-3 -7 -16 -13 -30 -13 -27 0 -21 10 10 18 11 3
21 5 22 6 1 0 0 -5 -2 -11z m310 2 c3 -6 -1 -7 -9 -4 -18 7 -21 14 -7 14 6 0
13 -4 16 -10z m173 -4 c-7 -8 -15 -12 -17 -11 -5 6 10 25 20 25 5 0 4 -6 -3
-14z m282 4 c0 -5 -5 -10 -11 -10 -5 0 -7 5 -4 10 3 6 8 10 11 10 2 0 4 -4 4
-10z m101 -7 c13 -15 12 -15 -10 -4 -16 9 -26 10 -33 3 -6 -6 -18 -8 -27 -4
-13 5 -11 8 9 13 39 11 47 10 61 -8z m-1191 -8 c-10 -9 -24 -12 -40 -8 l-25 7
25 7 c14 4 32 7 40 8 12 1 12 -1 0 -14z m217 9 c-3 -3 -12 -4 -19 -1 -8 3 -5
6 6 6 11 1 17 -2 13 -5z m235 -1 c-6 -2 -9 -10 -6 -15 4 -7 2 -8 -4 -4 -18 11
-14 26 6 25 10 0 12 -3 4 -6z m132 -3 c-5 -5 -25 -12 -44 -15 l-35 -5 35 14
c42 18 58 20 44 6z m136 1 c0 -4 -11 -6 -25 -3 -14 2 -25 6 -25 8 0 2 11 4 25
4 14 0 25 -4 25 -9z m220 -6 c10 -12 9 -16 -4 -21 -9 -3 -13 -10 -10 -15 8
-14 -6 -10 -22 6 -14 13 -13 15 11 15 15 0 24 4 20 10 -4 6 -10 8 -15 5 -5 -3
-11 -1 -15 5 -10 16 21 12 35 -5z m35 5 c3 -5 2 -10 -4 -10 -5 0 -13 5 -16 10
-3 6 -2 10 4 10 5 0 13 -4 16 -10z m290 0 c-3 -5 -12 -7 -20 -3 -21 7 -19 13
6 13 11 0 18 -4 14 -10z m-1165 -19 c0 -4 -11 -6 -25 -3 -14 2 -25 6 -25 8 0
2 11 4 25 4 14 0 25 -4 25 -9z m85 -17 c-10 -7 -23 -10 -29 -6 -7 4 -4 8 7 10
9 2 15 8 12 13 -3 5 2 6 11 2 16 -6 16 -7 -1 -19z m180 16 c3 -5 1 -10 -4 -10
-6 0 -11 5 -11 10 0 6 2 10 4 10 3 0 8 -4 11 -10z m265 -6 c0 -2 -9 -4 -20 -4
-11 0 -20 4 -20 9 0 5 9 7 20 4 11 -3 20 -7 20 -9z m60 -4 c0 -10 -31 -22 -38
-15 -3 3 0 5 7 5 7 0 11 7 8 14 -4 10 -1 13 9 9 7 -3 14 -9 14 -13z m70 8 c0
-4 -7 -8 -15 -8 -8 0 -15 4 -15 8 0 5 7 9 15 9 8 0 15 -4 15 -9z m305 2 c3 -6
-1 -7 -9 -4 -18 7 -21 14 -7 14 6 0 13 -4 16 -10z m115 6 c0 -2 -7 -6 -15 -10
-8 -3 -15 -1 -15 4 0 6 7 10 15 10 8 0 15 -2 15 -4z m-1443 -12 c-3 -3 -12 -4
-19 -1 -8 3 -5 6 6 6 11 1 17 -2 13 -5z m123 2 c0 -3 -4 -8 -10 -11 -5 -3 -10
-1 -10 4 0 6 5 11 10 11 6 0 10 -2 10 -4z m400 -6 c0 -5 -5 -10 -11 -10 -5 0
-7 5 -4 10 3 6 8 10 11 10 2 0 4 -4 4 -10z m575 0 c4 -6 9 -8 13 -6 4 2 12 -1
18 -8 8 -8 -2 -11 -38 -12 -59 -1 -58 4 2 15 3 1 -2 6 -10 11 -9 6 -10 10 -3
10 6 0 15 -5 18 -10z m-1999 -26 c-4 -9 -9 -15 -11 -12 -3 3 -3 13 1 22 4 9 9
15 11 12 3 -3 3 -13 -1 -22z m974 16 c12 -8 11 -10 -5 -10 -12 0 -26 -5 -33
-12 -16 -16 -15 -1 1 17 15 17 18 18 37 5z m680 1 c0 -11 -31 -24 -38 -16 -3
3 0 5 7 5 7 0 9 5 6 10 -3 6 1 10 9 10 9 0 16 -4 16 -9z m82 0 c-12 -7 -62 -4
-62 5 0 2 17 4 38 4 23 0 32 -3 24 -9z m561 -3 c-2 -5 3 -8 11 -8 9 0 16 -4
16 -9 0 -5 12 -12 26 -15 15 -4 24 -9 21 -13 -5 -4 -117 45 -117 52 0 2 11 2
24 1 13 0 22 -4 19 -8z m146 -15 c2 -2 -3 -3 -11 -3 -9 0 -19 7 -22 16 -6 15
-4 15 11 3 10 -7 20 -15 22 -16z m-1369 7 c0 -5 -8 -10 -17 -10 -15 0 -16 2
-3 10 19 12 20 12 20 0z m134 -5 c7 -19 -5 -19 -30 0 -19 14 -19 14 2 15 12 0
24 -7 28 -15z m301 5 c3 -5 -1 -10 -10 -10 -9 0 -13 5 -10 10 3 6 8 10 10 10
2 0 7 -4 10 -10z m639 -2 c-3 -4 5 -8 18 -9 20 -1 19 -2 -6 -10 -17 -4 -32 -6
-35 -4 -2 3 2 5 10 5 8 1 3 7 -11 15 l-25 14 27 -1 c15 -1 24 -6 22 -10z m92
-6 c-4 -22 -23 -35 -31 -21 -5 7 -4 10 3 5 6 -3 13 -2 17 4 3 5 -3 10 -14 10
-12 0 -21 3 -21 8 0 4 11 7 24 7 13 0 23 -5 22 -13z m-3101 -2 c3 -5 1 -10 -4
-10 -6 0 -11 5 -11 10 0 6 2 10 4 10 3 0 8 -4 11 -10z m1400 0 c-3 -5 -12 -10
-18 -10 -7 0 -6 4 3 10 19 12 23 12 15 0z m495 6 c0 -3 -4 -8 -10 -11 -5 -3
-10 -1 -10 4 0 6 5 11 10 11 6 0 10 -2 10 -4z m280 -6 c0 -5 -4 -10 -10 -10
-5 0 -10 5 -10 10 0 6 5 10 10 10 6 0 10 -4 10 -10z m103 0 c7 -1 -1 -12 -18
-25 -16 -14 -37 -25 -45 -25 -8 1 -3 8 13 16 27 14 34 28 20 37 -5 2 -2 2 5 0
8 -1 19 -3 25 -3z m57 6 c0 -2 -9 -6 -20 -9 -11 -3 -20 -1 -20 4 0 5 9 9 20 9
11 0 20 -2 20 -4z m265 -20 c16 4 17 3 5 -5 -12 -9 -7 -11 23 -9 20 1 37 6 37
10 0 4 4 8 10 8 23 0 -5 -30 -29 -31 -23 0 -24 -1 -6 -9 11 -5 14 -9 7 -9 -15
-1 -110 47 -117 60 -3 4 7 2 22 -6 15 -8 37 -12 48 -9z m40 14 c3 -6 -1 -7 -9
-4 -18 7 -21 14 -7 14 6 0 13 -4 16 -10z m131 0 c14 0 23 -4 19 -9 -3 -6 -17
-6 -35 -1 -18 5 -32 5 -35 -1 -4 -5 -11 -9 -16 -9 -5 0 -4 7 3 15 7 8 19 12
26 10 8 -3 25 -5 38 -5z m-756 -10 c0 -5 -4 -10 -10 -10 -5 0 -10 5 -10 10 0
6 5 10 10 10 6 0 10 -4 10 -10z m210 0 c0 -5 -5 -10 -11 -10 -5 0 -7 5 -4 10
3 6 8 10 11 10 2 0 4 -4 4 -10z m627 -12 c0 -7 -14 -14 -30 -15 -28 -2 -29 -2
-11 12 24 18 41 19 41 3z m43 8 c0 -11 -19 -15 -25 -6 -3 5 1 10 9 10 9 0 16
-2 16 -4z m37 -2 c-3 -3 -12 -4 -19 -1 -8 3 -5 6 6 6 11 1 17 -2 13 -5z
m-1447 -24 c0 -5 -8 -10 -17 -10 -15 0 -16 2 -3 10 19 12 20 12 20 0z m565 0
c-3 -5 -13 -10 -21 -10 -8 0 -14 5 -14 10 0 6 9 10 21 10 11 0 17 -4 14 -10z
m312 4 c-3 -3 -12 -4 -19 -1 -8 3 -5 6 6 6 11 1 17 -2 13 -5z m159 -6 c4 -5
-5 -8 -20 -8 -15 0 -35 -4 -44 -9 -10 -5 -33 -6 -52 -1 -34 8 -34 8 13 9 27 1
46 4 44 9 -3 4 8 7 23 7 16 0 32 -3 36 -7z m177 -5 c-7 -3 -13 -9 -13 -14 0
-6 19 -7 46 -3 29 4 44 2 40 -4 -3 -5 -17 -8 -31 -7 -14 2 -25 0 -25 -5 0 -4
-15 -7 -32 -5 -18 1 -40 -2 -48 -6 -8 -4 -20 -1 -26 5 -9 10 -4 13 23 14 24 1
41 9 50 22 8 12 18 18 22 14 3 -4 0 -9 -6 -11z m72 7 c-3 -5 -13 -10 -21 -10
-8 0 -14 5 -14 10 0 6 9 10 21 10 11 0 17 -4 14 -10z m210 3 c-11 -3 -23 -10
-27 -16 -4 -6 -10 -8 -13 -5 -13 13 6 28 33 27 21 -1 23 -2 7 -6z m40 -14 c-4
-5 -13 -9 -21 -9 -12 0 -12 2 -2 14 14 15 32 11 23 -5z m-3011 2 c4 -5 -3 -7
-14 -4 -23 6 -26 13 -6 13 8 0 17 -4 20 -9z m1668 -13 c-7 -7 -12 -8 -12 -2 0
6 3 14 7 17 3 4 9 5 12 2 2 -3 -1 -11 -7 -17z m448 2 c-24 -15 -37 -11 -16 5
11 8 22 12 25 9 3 -3 -1 -9 -9 -14z m184 5 c-4 -8 -10 -15 -15 -15 -4 0 -6 7
-3 15 4 8 10 15 15 15 4 0 6 -7 3 -15z m610 5 c-11 -10 -104 -18 -104 -8 0 6
26 11 89 15 12 0 19 -3 15 -7z m141 0 c3 -6 -1 -7 -9 -4 -18 7 -21 14 -7 14 6
0 13 -4 16 -10z m75 1 c0 -5 -9 -7 -20 -4 -11 3 -20 7 -20 9 0 2 9 4 20 4 11
0 20 -4 20 -9z m148 2 c-10 -2 -26 -2 -35 0 -10 3 -2 5 17 5 19 0 27 -2 18 -5z
m-1458 -18 c-7 -8 -20 -15 -28 -15 -13 0 -12 3 4 15 25 19 40 19 24 0z m130 0
c-7 -8 -16 -15 -21 -15 -5 0 -6 7 -3 15 4 8 13 15 21 15 13 0 13 -3 3 -15z
m127 9 c-3 -3 -12 -4 -19 -1 -8 3 -5 6 6 6 11 1 17 -2 13 -5z m265 -1 c-6 -2
-10 -9 -6 -14 3 -5 -2 -9 -10 -9 -9 0 -16 4 -16 9 0 10 18 19 35 19 6 0 4 -2
-3 -5z m198 -7 c-21 -20 -76 -30 -85 -16 -5 8 -1 10 11 6 11 -3 30 1 44 8 33
19 48 19 30 2z m40 4 c0 -5 -2 -10 -4 -10 -3 0 -8 5 -11 10 -3 6 -1 10 4 10 6
0 11 -4 11 -10z m620 -11 c0 -5 -4 -9 -8 -9 -5 0 -9 7 -9 15 0 8 4 12 9 9 4
-3 8 -9 8 -15z m-935 1 c3 -5 1 -10 -4 -10 -6 0 -11 5 -11 10 0 6 2 10 4 10 3
0 8 -4 11 -10z m827 -26 c-15 -6 -31 -9 -37 -6 -5 4 1 9 15 13 14 4 19 7 13 8
-7 1 -13 5 -13 10 0 5 11 4 24 -2 l24 -12 -26 -11z m-912 16 c0 -5 -7 -10 -15
-10 -8 0 -15 5 -15 10 0 6 7 10 15 10 8 0 15 -4 15 -10z m695 0 c3 -5 2 -10
-4 -10 -5 0 -13 5 -16 10 -3 6 -2 10 4 10 5 0 13 -4 16 -10z m415 3 c-8 -3
-18 -10 -21 -16 -4 -6 -17 -5 -35 2 l-29 11 28 -4 c15 -2 27 1 27 5 0 5 10 9
23 8 15 0 17 -2 7 -6z m-1625 -13 c3 -6 -4 -10 -17 -10 -18 0 -20 2 -8 10 19
12 18 12 25 0z m215 -5 c-7 -8 -20 -15 -29 -15 -11 1 -8 5 9 15 32 18 35 18
20 0z m375 -6 c-29 -11 -35 -10 -35 5 0 9 8 12 27 8 25 -5 25 -6 8 -13z m161
12 c-6 -9 -56 -22 -56 -14 0 4 40 21 53 22 5 1 6 -3 3 -8z m399 -1 c-3 -5 -10
-10 -16 -10 -5 0 -9 5 -9 10 0 6 7 10 16 10 8 0 12 -4 9 -10z m193 -8 c-23 -4
-23 -22 -1 -22 13 0 14 -3 5 -12 -10 -10 -16 -7 -28 10 -8 12 -25 22 -36 22
-20 0 -19 -3 10 -31 20 -20 37 -29 49 -25 12 4 23 -1 31 -14 10 -17 10 -19 -5
-16 -10 1 -26 7 -37 11 -11 5 -26 4 -36 -3 -10 -6 -22 -7 -31 -1 -19 12 -32
11 -24 -2 4 -6 -2 -5 -13 2 -12 7 -20 14 -19 15 1 1 15 4 30 8 19 4 26 3 22
-4 -3 -6 3 -10 14 -10 27 0 27 20 0 27 -16 4 -17 8 -7 14 10 7 9 9 -4 9 -10 0
-18 -6 -18 -14 0 -9 -7 -12 -20 -9 -11 3 -26 1 -33 -4 -6 -6 -25 -13 -41 -17
-26 -6 -27 -5 -13 9 9 8 25 15 37 15 16 0 20 4 16 15 -7 18 5 20 22 3 9 -9 17
-6 36 11 18 17 32 22 50 17 15 -4 26 -2 26 3 0 6 8 7 18 3 16 -6 16 -7 0 -10z
m-245 -3 c-8 -8 -16 -8 -30 0 -16 9 -14 10 12 11 21 0 26 -3 18 -11z m437 0
c0 -8 -47 -5 -55 3 -3 3 9 5 25 5 17 0 30 -4 30 -8z m-1500 -9 c-8 -5 -19 -10
-25 -10 -5 0 -3 5 5 10 8 5 20 10 25 10 6 0 3 -5 -5 -10z m435 0 c-3 -5 -14
-10 -23 -11 -11 0 -12 -2 -4 -6 6 -2 9 -9 6 -14 -3 -6 -12 -2 -19 8 -12 15
-17 16 -35 5 -28 -17 -120 -14 -113 5 3 7 9 13 15 13 5 0 6 -5 3 -11 -5 -6 9
-9 39 -8 25 2 46 6 46 10 0 4 15 10 33 12 17 2 38 5 45 5 7 1 10 -2 7 -8z m75
2 c0 -5 -6 -17 -14 -27 -13 -18 -14 -18 -32 -1 -17 18 -17 18 3 12 14 -4 23
-2 27 9 6 16 16 20 16 7z m392 -27 c4 -5 6 -15 4 -22 -6 -15 21 -25 45 -18 21
7 26 -10 7 -18 -8 -3 -7 -6 4 -6 9 -1 20 -6 23 -11 8 -13 -76 20 -92 36 -9 8
-9 14 0 23 8 8 8 11 0 11 -7 0 -15 -4 -18 -10 -3 -5 -11 -10 -17 -10 -6 0 -3
9 7 20 18 20 17 20 -16 21 -31 1 -32 2 -9 8 24 7 45 -1 62 -24z m67 24 c-18
-11 -52 -11 -45 0 3 5 17 9 32 9 18 0 22 -3 13 -9z m161 -4 c11 -13 10 -14 -4
-9 -9 3 -16 10 -16 15 0 13 6 11 20 -6z m-907 -2 c-7 -2 -19 -2 -25 0 -7 3 -2
5 12 5 14 0 19 -2 13 -5z m571 -4 c44 0 -4 -18 -59 -22 -32 -3 -61 -9 -63 -15
-4 -12 -42 -3 -42 10 0 5 -4 7 -8 4 -4 -2 -14 -1 -21 3 -7 5 11 8 43 7 33 0
61 5 68 12 8 8 23 11 38 7 14 -3 34 -6 44 -6z m233 5 c-3 -3 -12 -4 -19 -1 -8
3 -5 6 6 6 11 1 17 -2 13 -5z m400 0 c-3 -3 -12 -4 -19 -1 -8 3 -5 6 6 6 11 1
17 -2 13 -5z m177 -10 c21 -21 21 -21 -16 -15 -22 3 -27 6 -14 9 15 3 16 6 5
13 -9 5 -10 9 -2 9 6 0 19 -7 27 -16z m-140 -15 c-8 -13 10 -11 24 3 9 9 12 9
12 1 0 -19 -39 -26 -55 -10 -8 8 -12 17 -9 20 9 9 35 -4 28 -14z m-3174 3 c0
-5 -7 -9 -15 -9 -8 0 -15 4 -15 9 0 4 7 8 15 8 8 0 15 -4 15 -8z m1940 4 c0
-3 -4 -8 -10 -11 -5 -3 -10 -1 -10 4 0 6 5 11 10 11 6 0 10 -2 10 -4z m345 -6
c3 -5 1 -10 -4 -10 -6 0 -11 5 -11 10 0 6 2 10 4 10 3 0 8 -4 11 -10z m263 -2
c-2 -6 -10 -13 -16 -14 -7 -1 -8 0 -2 3 5 2 8 9 4 14 -3 5 0 9 6 9 7 0 10 -5
8 -12z m231 8 c-11 -9 -69 -14 -69 -6 0 6 17 10 37 10 20 0 34 -2 32 -4z m341
-5 c0 -11 -25 -21 -53 -21 -35 0 -1 22 46 29 4 0 7 -3 7 -8z m-1570 -11 c0 -5
-8 -10 -17 -10 -15 0 -16 2 -3 10 19 12 20 12 20 0z m40 6 c0 -2 -7 -7 -16
-10 -8 -3 -12 -2 -9 4 6 10 25 14 25 6z m300 -5 c0 -5 -12 -17 -27 -27 -27
-17 -28 -17 -13 2 24 30 40 40 40 25z m344 -16 c-28 -24 -24 -32 10 -19 9 3
13 10 10 15 -3 5 11 9 31 9 22 0 34 -4 30 -10 -3 -5 2 -10 12 -11 11 0 13 -3
5 -6 -7 -3 -19 0 -27 7 -10 9 -18 7 -34 -6 -11 -10 -18 -21 -16 -25 3 -4 -2
-10 -11 -13 -12 -4 -15 -2 -10 9 7 19 -1 19 -20 0 -18 -17 -34 -20 -34 -5 0 6
7 10 15 10 8 0 12 6 9 13 -5 14 31 57 48 57 6 0 -2 -11 -18 -25z m1026 10 c0
-2 -9 -3 -19 -2 -11 0 -18 5 -15 9 4 6 34 0 34 -7z m-1460 -5 c8 -5 11 -10 5
-10 -5 0 -17 5 -25 10 -8 5 -10 10 -5 10 6 0 17 -5 25 -10z m375 0 c4 -6 -6
-10 -24 -10 -16 0 -37 -7 -45 -16 -9 -8 -20 -13 -25 -10 -5 4 -23 -6 -40 -20
-37 -31 -40 -21 -7 20 15 18 30 27 40 23 8 -3 28 0 43 8 33 17 49 19 58 5z
m313 -5 c15 4 21 2 17 -5 -3 -5 -16 -10 -28 -10 -17 0 -18 -3 -9 -12 10 -10
22 -9 58 4 l45 16 -16 -24 c-18 -27 -10 -32 15 -9 13 12 23 13 41 5 l24 -11
-24 5 c-13 3 -30 -2 -38 -10 -9 -8 -23 -12 -34 -9 -10 3 -27 1 -39 -5 -12 -6
-20 -7 -20 -1 0 5 6 12 13 14 6 3 3 6 -9 6 -12 1 -31 10 -44 21 -13 11 -27 20
-32 20 -5 0 -7 4 -3 10 4 6 15 6 32 -1 15 -6 38 -7 51 -4z m295 9 c3 -4 -4
-15 -16 -25 l-22 -18 30 -2 c17 -1 33 -1 38 0 4 0 7 -4 7 -9 0 -7 6 -7 20 0
12 6 20 7 20 1 0 -14 -59 -41 -66 -30 -3 5 3 9 12 9 19 0 14 10 -8 14 -77 15
-94 20 -100 30 -11 16 -10 26 3 26 5 0 7 -4 4 -10 -7 -11 24 -13 50 -4 13 5
14 8 3 15 -10 7 -10 9 3 9 9 0 18 -3 22 -6z m547 -26 c0 -5 -7 -8 -15 -8 -8 0
-15 2 -15 4 0 2 -3 12 -6 21 -6 15 -4 15 15 4 11 -8 21 -17 21 -21z m-1315 3
c-3 -6 -11 -8 -17 -5 -6 4 -5 9 3 15 16 10 23 4 14 -10z m1135 9 c0 -5 -7 -7
-15 -4 -8 4 -15 8 -15 10 0 2 7 4 15 4 8 0 15 -4 15 -10z m-1375 -11 c9 -13 3
-19 -26 -24 -22 -4 -22 -3 -7 9 10 7 15 16 11 19 -3 4 -1 7 5 7 6 0 14 -5 17
-11z m157 -1 c-9 -9 -15 -9 -24 0 -9 9 -7 12 12 12 19 0 21 -3 12 -12z m918 2
c0 -5 -8 -10 -17 -10 -15 0 -16 2 -3 10 19 12 20 12 20 0z m380 0 c11 -8 7 -9
-15 -4 -37 8 -45 14 -19 14 10 0 26 -5 34 -10z m-1260 -20 c-24 -15 -37 -11
-16 5 11 8 22 12 25 9 3 -3 -1 -9 -9 -14z m436 -2 c-1 -15 -8 -24 -21 -26 -24
-3 -53 14 -42 24 4 4 12 3 18 -3 15 -15 39 -5 32 13 -3 8 -1 14 5 14 5 0 9
-10 8 -22z m474 12 c0 -5 7 -10 16 -10 8 0 12 -5 9 -10 -4 -7 -13 -7 -26 0
-20 11 -26 30 -9 30 6 0 10 -4 10 -10z m-2885 -10 c-3 -5 -2 -10 3 -10 6 0 8
-9 5 -20 -8 -29 -18 -24 -20 10 -1 17 2 30 8 30 6 0 7 -4 4 -10z m1645 0 c-8
-5 -24 -9 -35 -9 -16 1 -16 2 5 9 35 11 48 11 30 0z m1370 -5 c0 -24 39 -39
65 -25 13 7 29 10 37 7 7 -2 2 -8 -14 -12 -30 -8 -38 -25 -13 -25 8 0 15 5 15
10 0 16 26 12 41 -6 12 -15 11 -16 -8 -10 -12 4 -31 2 -43 -4 -14 -8 -20 -8
-20 0 0 6 -13 16 -30 21 -16 6 -30 15 -30 20 0 5 -7 9 -15 9 -16 0 -20 12 -8
23 11 12 23 8 23 -8z m193 -5 c10 -10 8 -12 -5 -7 -12 4 -18 1 -18 -7 0 -8 -7
-16 -15 -20 -8 -3 -15 -1 -15 4 0 6 4 10 9 10 5 0 11 6 14 14 4 10 -4 12 -34
10 -21 -1 -39 1 -39 5 0 13 90 5 103 -9z m104 1 c17 3 24 -1 18 -11 -6 -9 -65
14 -65 26 0 2 9 0 20 -6 10 -6 23 -10 27 -9z m-1727 0 c0 -5 -7 -11 -15 -15
-15 -5 -20 5 -8 17 9 10 23 9 23 -2z m575 -1 c3 -5 -1 -10 -10 -10 -9 0 -13 5
-10 10 3 6 8 10 10 10 2 0 7 -4 10 -10z m168 1 c5 -1 5 -6 2 -11 -4 -6 7 -15
24 -21 17 -6 31 -17 31 -24 0 -7 14 -16 30 -20 l30 -7 -22 -18 c-13 -10 -25
-16 -28 -14 -2 3 2 10 10 15 11 8 7 9 -15 6 -16 -2 -39 -7 -50 -12 -16 -5 -17
-5 -5 4 12 9 11 11 -9 11 -13 0 -21 -3 -18 -7 4 -3 -1 -15 -10 -26 -17 -19
-17 -20 4 -15 12 3 24 1 27 -6 3 -7 7 -8 13 -1 10 12 36 13 44 1 7 -9 27 4 57
37 9 11 26 23 37 27 19 8 19 9 1 9 -37 2 14 30 67 37 26 4 47 10 47 14 0 9 97
6 106 -2 3 -3 -9 -13 -27 -22 -35 -18 -53 -13 -26 7 15 10 13 12 -15 11 -18 0
-31 -5 -28 -10 3 -5 8 -8 13 -6 4 1 7 -3 7 -9 0 -7 -7 -8 -17 -3 -10 4 -31 7
-48 6 -70 -3 -67 -2 -54 -18 10 -13 10 -17 -2 -25 -8 -5 -19 -7 -26 -5 -6 3
-14 -1 -17 -9 -2 -7 1 -16 9 -19 8 -3 15 0 17 6 3 8 10 8 23 1 32 -16 75 -24
75 -14 0 5 -8 12 -17 14 -10 3 -1 5 19 6 20 0 38 6 40 12 2 7 9 5 17 -5 12
-14 11 -16 -5 -16 -13 0 -15 -3 -7 -11 14 -14 50 7 56 33 5 17 -9 24 -36 19
-5 -1 -6 3 -3 8 8 12 46 21 46 10 0 -5 10 -9 23 -10 l22 0 -22 -9 c-13 -5 -23
-14 -23 -20 0 -12 27 -14 32 -2 4 12 78 2 78 -10 0 -5 -6 -8 -12 -5 -7 2 -21
0 -30 -5 -12 -6 -18 -5 -18 2 0 12 -53 2 -58 -12 -2 -4 -8 -6 -13 -2 -5 3 -9
0 -9 -5 0 -17 -27 -13 -45 6 -14 14 -18 14 -26 2 -7 -11 0 -16 26 -23 19 -5
35 -13 35 -18 0 -8 -62 1 -70 11 -9 11 -32 12 -25 1 10 -16 -7 -11 -19 6 -7 9
-23 16 -37 15 -55 -1 -91 -9 -100 -22 -6 -9 -12 -10 -16 -4 -11 14 -47 19 -38
6 9 -16 -8 -13 -61 10 -40 17 -52 18 -71 8 -13 -7 -26 -9 -30 -5 -4 4 3 9 15
13 12 3 22 12 22 19 0 19 17 18 28 -3 6 -10 16 -14 27 -9 10 3 15 9 12 13 -4
3 -2 12 5 20 6 7 7 17 3 21 -4 4 -10 1 -12 -5 -3 -7 -14 -13 -26 -12 -20 0
-20 1 -4 8 10 4 18 11 17 16 -1 15 28 14 34 -1 3 -8 19 -14 35 -14 24 0 28 3
24 20 -3 11 -9 20 -14 20 -5 0 -6 -8 -3 -17 4 -14 2 -14 -8 2 -7 11 -19 20
-25 21 -26 2 -29 4 -30 23 -1 13 4 18 15 16 9 -2 21 -4 25 -4z m622 -1 c3 -6
-1 -7 -9 -4 -18 7 -21 14 -7 14 6 0 13 -4 16 -10z m120 -10 c-3 -5 -14 -6 -25
-3 -11 3 -18 9 -15 13 3 5 14 6 25 3 11 -3 18 -9 15 -13z m-1350 -9 c-3 -6
-14 -11 -23 -11 -13 0 -13 2 4 14 21 15 30 14 19 -3z m125 10 c0 -5 -7 -11
-14 -14 -10 -4 -13 -1 -9 9 6 15 23 19 23 5z m894 -3 c-3 -4 -9 -8 -15 -8 -5
0 -9 4 -9 8 0 5 7 9 15 9 8 0 12 -4 9 -9z m511 2 c3 -6 -1 -7 -9 -4 -18 7 -21
14 -7 14 6 0 13 -4 16 -10z m-1341 -11 c-6 -11 -44 -12 -44 -1 0 4 11 8 25 8
14 1 22 -2 19 -7z m83 -4 c4 -4 -2 -5 -14 -2 -13 3 -26 1 -29 -4 -3 -5 0 -9 7
-9 10 0 10 -3 1 -12 -8 -8 -17 -8 -34 0 -16 7 -18 11 -7 11 9 1 22 7 28 15 13
15 35 16 48 1z m137 9 c9 -3 13 -11 10 -16 -4 -6 2 -5 14 1 14 8 23 8 27 1 4
-6 24 -9 46 -6 23 2 39 0 39 -6 0 -6 -7 -8 -15 -4 -18 7 -45 -3 -45 -16 0 -5
10 -6 23 -2 16 5 9 -5 -23 -35 -25 -22 -52 -41 -60 -41 -9 0 -20 -4 -25 -9 -6
-6 -20 -4 -35 4 -25 14 -25 14 -2 15 12 0 22 -6 23 -12 0 -10 2 -10 6 0 2 6
11 12 20 12 21 0 71 56 63 70 -4 7 -20 11 -36 10 -41 -3 -71 1 -57 6 7 3 9 12
6 20 -6 16 -2 17 21 8z m340 -5 c-3 -5 -14 -9 -25 -9 -10 0 -19 4 -19 9 0 5
11 9 25 9 13 0 22 -4 19 -9z m412 2 c-3 -5 17 -7 46 -5 33 2 60 -2 77 -12 14
-8 19 -13 10 -10 -9 2 -22 -1 -28 -7 -9 -9 -11 -8 -6 4 8 21 -28 19 -53 -4
-10 -9 -24 -17 -30 -17 -12 0 -16 -12 -13 -40 1 -11 -1 -11 -9 3 -7 10 -24 17
-43 18 -26 0 -28 2 -12 8 11 5 26 6 33 4 6 -3 12 0 12 6 0 6 9 11 21 11 11 0
28 7 37 16 15 15 13 16 -19 9 -19 -4 -38 -11 -43 -15 -5 -5 -15 -6 -22 -3 -8
3 -14 0 -14 -7 0 -6 -8 -10 -17 -9 -10 2 -28 -2 -40 -9 -14 -8 -23 -9 -23 -3
0 15 36 32 53 25 8 -3 18 -1 22 5 3 6 14 11 25 11 10 0 20 7 24 15 3 8 8 15
11 15 4 0 4 -4 1 -9z m-1621 -11 c-3 -5 -11 -10 -16 -10 -6 0 -7 5 -4 10 3 6
11 10 16 10 6 0 7 -4 4 -10z m172 4 c-3 -3 -12 -4 -19 -1 -8 3 -5 6 6 6 11 1
17 -2 13 -5z m653 -1 c0 -12 -43 -53 -56 -53 -7 0 -14 -5 -16 -12 -3 -8 -13
-4 -29 11 l-24 23 24 -7 c17 -5 22 -4 19 6 -3 9 7 18 26 25 38 14 56 16 56 7z
m700 -4 c0 -6 -6 -9 -13 -6 -7 3 -21 -1 -32 -9 -22 -16 -35 -18 -35 -4 0 6 9
10 20 10 11 0 20 5 20 10 0 6 9 10 20 10 11 0 20 -5 20 -11z m530 0 c12 -8 7
-9 -17 -6 -18 2 -33 0 -33 -5 0 -4 -9 -8 -21 -8 -11 0 -17 5 -14 10 4 6 10 8
15 5 5 -3 11 -1 15 5 8 13 36 13 55 -1z m-1540 -3 c0 -2 -8 -10 -17 -17 -16
-13 -17 -12 -4 4 13 16 21 21 21 13z m644 -5 c3 -5 16 -7 28 -3 13 3 19 1 15
-6 -4 -5 -13 -9 -20 -8 -18 3 -54 25 -40 26 6 0 14 -4 17 -9z m-1084 -5 c0 -3
-4 -8 -10 -11 -5 -3 -10 -1 -10 4 0 6 5 11 10 11 6 0 10 -2 10 -4z m360 -1 c0
-2 -10 -9 -22 -15 -22 -11 -22 -10 -4 4 21 17 26 19 26 11z m105 -5 c-3 -5
-12 -10 -18 -10 -7 0 -6 4 3 10 19 12 23 12 15 0z m65 -10 c-24 -21 -60 -27
-60 -10 0 6 11 10 24 10 14 0 28 5 31 10 3 6 11 10 17 10 6 0 1 -9 -12 -20z
m1333 13 c-22 -8 -14 -23 13 -23 14 0 23 -4 20 -8 -8 -13 -66 -1 -66 13 0 13
16 23 35 23 6 0 4 -2 -2 -5z m-3196 -23 c-1 -11 -4 -20 -8 -20 -10 0 -19 27
-12 34 12 12 22 5 20 -14z m1534 3 c-23 -42 -67 -61 -88 -38 -4 4 2 6 14 3 15
-4 30 3 50 23 33 33 37 35 24 12z m1034 7 c-4 -6 9 -10 31 -10 32 0 35 -2 24
-15 -7 -9 -16 -12 -19 -8 -10 14 -35 9 -53 -10 -19 -21 -46 -14 -29 7 6 7 7
16 3 21 -4 4 3 4 15 1 18 -6 22 -4 17 8 -3 9 -1 16 6 16 6 0 8 -4 5 -10z m390
0 c-3 -5 -12 -10 -18 -10 -7 0 -6 4 3 10 19 12 23 12 15 0z m345 0 c0 -5 -9
-10 -21 -10 -11 0 -17 5 -14 10 3 6 13 10 21 10 8 0 14 -4 14 -10z m-236 -16
c20 -3 33 -10 31 -15 -3 -4 -19 -6 -35 -2 -18 3 -36 0 -45 -7 -12 -10 -18 -10
-30 0 -14 12 -35 6 -35 -10 0 -5 6 -10 13 -13 6 -2 4 -3 -5 -2 -10 2 -21 -1
-24 -6 -3 -5 9 -9 25 -9 17 0 31 5 31 10 0 6 8 10 18 10 15 -1 15 -2 -3 -15
-13 -11 -36 -14 -73 -11 -65 5 -76 13 -30 21 21 4 35 12 35 21 0 10 -4 11 -11
4 -15 -15 -26 -12 -19 6 4 11 13 14 29 10 13 -4 24 -2 24 3 0 10 37 20 57 15
6 -1 28 -6 47 -10z m-1141 -17 c-15 -21 -19 -22 -31 -10 -8 8 -11 17 -8 21 4
3 11 0 16 -8 8 -12 10 -12 16 3 3 9 10 17 16 17 5 0 1 -11 -9 -23z m164 17
c-3 -3 -12 -4 -19 -1 -8 3 -5 6 6 6 11 1 17 -2 13 -5z m43 -4 c0 -5 -8 -10
-17 -10 -15 0 -16 2 -3 10 19 12 20 12 20 0z m30 6 c0 -3 -4 -8 -10 -11 -5 -3
-10 -1 -10 4 0 6 5 11 10 11 6 0 10 -2 10 -4z m1157 -8 c-9 -5 -17 -18 -17
-28 0 -22 -19 -37 -29 -22 -3 5 -24 9 -46 7 -46 -2 -85 9 -85 25 0 5 5 10 11
10 5 0 7 -4 4 -10 -3 -5 0 -10 7 -11 7 0 28 -2 46 -5 17 -2 32 1 32 6 0 6 7
10 15 10 8 0 15 -4 15 -10 0 -5 5 -10 10 -10 21 0 9 20 -15 26 -39 10 -29 19
22 20 33 1 42 -1 30 -8z m-2105 -20 c-7 -7 -12 -8 -12 -2 0 6 3 14 7 17 3 4 9
5 12 2 2 -3 -1 -11 -7 -17z m502 -37 c-8 -10 -32 22 -27 35 4 12 8 10 18 -8 6
-13 10 -25 9 -27z m100 38 c3 -3 -13 -6 -35 -6 -22 -1 -37 2 -34 7 5 8 61 8
69 -1z m166 -1 c0 -4 -9 -8 -20 -8 -11 0 -20 -5 -20 -11 0 -5 -4 -7 -10 -4
-14 9 11 33 33 32 9 -1 17 -5 17 -9z m690 2 c0 -5 -4 -10 -9 -10 -6 0 -13 5
-16 10 -3 6 1 10 9 10 9 0 16 -4 16 -10z m-2665 -21 c-8 -12 -35 -12 -35 0 0
11 22 20 33 14 4 -2 5 -9 2 -14z m2090 12 c-14 -12 -94 -21 -100 -11 -5 8 17
12 90 18 11 1 15 -2 10 -7z m55 5 c0 -2 -7 -6 -15 -10 -8 -3 -15 -1 -15 4 0 6
7 10 15 10 8 0 15 -2 15 -4z m913 -8 c3 -10 7 -10 20 1 18 14 47 9 47 -9 0 -7
-6 -8 -18 -1 -12 6 -23 5 -35 -4 -21 -15 -22 -25 -2 -25 8 0 15 -4 15 -10 0
-5 -9 -10 -21 -10 -11 0 -17 5 -14 10 3 6 -4 10 -17 11 -23 0 -23 0 2 11 15 6
20 12 13 15 -7 3 -13 9 -13 14 0 14 18 11 23 -3z m-1727 -33 c-9 -14 -21 -25
-27 -25 -5 0 -1 10 11 22 11 12 20 26 20 32 0 5 3 6 6 3 4 -4 -1 -18 -10 -32z
m314 25 c0 -5 -5 -10 -11 -10 -5 0 -7 5 -4 10 3 6 8 10 11 10 2 0 4 -4 4 -10z
m1210 1 c0 -5 -11 -8 -24 -7 -13 0 -22 4 -19 9 6 10 43 9 43 -2z m-1260 -16
c-7 -8 -24 -15 -39 -15 l-26 0 25 14 c36 20 56 20 40 1z m170 11 c0 -2 -7 -6
-15 -10 -8 -3 -15 -1 -15 4 0 6 7 10 15 10 8 0 15 -2 15 -4z m94 -5 c3 -5 -1
-11 -9 -14 -9 -4 -12 -1 -8 9 6 16 10 17 17 5z m113 3 c-3 -3 -12 -4 -19 -1
-8 3 -5 6 6 6 11 1 17 -2 13 -5z m-597 -12 c0 -5 -7 -9 -15 -9 -8 0 -12 4 -9
9 3 4 9 8 15 8 5 0 9 -4 9 -8z m430 4 c0 -2 -7 -7 -16 -10 -8 -3 -12 -2 -9 4
6 10 25 14 25 6z m120 -12 c0 -2 -12 -4 -26 -4 -14 0 -23 4 -20 9 6 8 46 4 46
-5z m826 9 c16 7 28 7 34 1 6 -6 3 -10 -10 -11 -11 -1 -34 -8 -50 -17 -30 -15
-70 -11 -70 6 0 5 13 7 30 3 26 -6 29 -4 24 12 -6 14 -4 16 6 6 9 -8 19 -9 36
0z m-2761 -13 c-3 -5 2 -11 12 -11 17 -1 17 -2 0 -6 -9 -2 -15 -9 -11 -14 3
-5 10 -7 15 -4 5 4 9 1 9 -4 0 -6 -12 -11 -26 -11 -16 0 -23 4 -18 11 3 6 0
15 -7 20 -11 7 -11 9 -1 9 7 0 10 5 7 10 -3 6 1 10 10 10 9 0 13 -4 10 -10z
m1700 -8 c-3 -3 -11 0 -18 7 -9 10 -8 11 6 5 10 -3 15 -9 12 -12z m370 4 c11
-2 19 -9 18 -15 -4 -15 9 -14 34 4 19 13 22 13 27 -1 3 -9 4 -20 0 -25 -3 -5
-1 -9 4 -9 6 0 12 7 16 15 3 8 10 15 16 15 6 0 9 -4 5 -9 -8 -15 15 -25 28
-12 8 8 7 11 -2 11 -11 0 -11 3 -1 15 7 8 20 15 28 15 13 0 12 -3 -4 -15 -15
-11 -16 -14 -4 -15 9 0 20 4 25 8 6 5 28 4 49 -3 22 -6 35 -15 29 -18 -6 -4
-23 -3 -38 3 -20 7 -31 7 -41 -1 -8 -6 -14 -8 -14 -4 0 5 -8 1 -17 -7 -24 -20
-53 -20 -46 1 4 14 3 14 -9 0 -9 -12 -19 -14 -36 -8 -12 5 -33 4 -48 -1 -17
-7 -23 -7 -19 0 3 6 14 10 23 10 14 0 13 3 -4 14 -30 22 -72 30 -87 17 -9 -6
-24 -7 -43 -2 -28 9 -28 9 11 11 33 1 36 3 20 11 -19 9 24 6 80 -5z m1113 7
c-3 -8 5 -13 23 -13 5 0 7 5 4 10 -7 12 39 12 75 -1 21 -7 19 -8 -12 -5 -38 4
-72 -12 -96 -46 -9 -13 -20 -17 -34 -12 -16 5 -19 3 -12 -7 6 -12 5 -12 -9 0
-23 18 -21 23 6 21 12 -1 29 -2 37 -1 13 1 13 2 0 11 -13 8 -12 10 3 10 15 0
16 2 5 13 -7 8 -20 16 -28 20 -9 3 -4 6 13 6 15 1 26 -2 25 -6z m-1555 -20
c-8 -23 -54 -73 -67 -73 -6 0 0 7 12 16 12 8 29 28 37 45 17 32 28 39 18 12z
m126 -13 c-7 -5 -18 -6 -24 -2 -6 4 -3 8 8 10 9 2 17 9 18 15 0 7 3 7 6 -2 3
-7 -1 -17 -8 -21z m767 14 c-5 -13 38 -25 51 -14 4 4 19 3 33 -1 l25 -9 -26 3
c-14 2 -31 -2 -37 -9 -10 -11 -18 -11 -37 -2 -19 9 -28 9 -37 0 -9 -9 -6 -12
13 -12 18 0 20 -3 10 -9 -8 -5 -24 -6 -37 -1 -19 7 -22 6 -17 -6 4 -12 16 -14
47 -10 22 3 34 3 26 0 -8 -3 -22 -8 -30 -12 -15 -6 -25 -7 -63 -11 -10 0 -16
-5 -13 -10 8 -12 -34 -47 -42 -36 -4 6 -25 19 -47 30 -22 11 -43 24 -47 29 -4
6 -23 10 -42 10 -20 0 -36 1 -36 3 0 1 14 10 31 18 31 17 56 12 29 -5 -11 -7
-3 -11 28 -16 23 -3 39 -10 36 -15 -12 -19 15 -7 41 19 16 15 26 22 22 16 -3
-5 7 -15 24 -21 16 -6 29 -8 29 -5 -1 15 -17 31 -42 41 -21 8 -29 7 -35 -4
-11 -18 -73 -32 -73 -16 0 6 9 11 19 11 28 0 52 11 46 20 -3 5 -1 11 4 14 5 4
12 2 16 -4 4 -6 12 -5 21 5 20 19 41 20 25 1 -9 -11 -6 -15 13 -18 18 -4 23
-1 19 10 -5 11 -1 13 18 7 21 -7 22 -6 11 8 -12 14 -11 16 7 14 12 -1 19 -7
17 -13z m347 3 c-3 -5 3 -6 16 -2 16 5 20 3 15 -10 -4 -9 -13 -14 -20 -11 -8
3 -21 9 -29 12 -9 4 -15 0 -15 -9 0 -10 -7 -15 -19 -12 -11 2 -27 -3 -38 -10
-10 -8 -28 -15 -40 -15 -13 0 -23 -4 -23 -10 0 -5 16 -10 36 -10 19 0 33 4 29
9 -9 15 16 24 28 11 9 -10 9 -11 0 -6 -7 4 -13 3 -13 -2 0 -5 10 -12 23 -16
33 -9 49 -7 42 4 -3 5 -12 7 -20 3 -8 -3 -15 0 -15 6 0 13 36 15 44 3 3 -5 21
-9 41 -10 20 -1 33 3 30 7 -3 5 1 11 7 14 7 2 -3 4 -22 4 -62 0 -80 3 -80 11
0 4 26 5 58 2 35 -3 56 -10 55 -16 -1 -7 6 -14 17 -17 12 -3 17 0 13 8 -3 10
7 13 40 12 38 -2 42 -4 28 -15 -14 -12 -14 -13 2 -8 24 8 69 -3 61 -15 -3 -5
-14 -4 -26 2 -14 8 -23 8 -31 0 -8 -8 -6 -11 7 -11 9 0 15 -4 11 -9 -3 -6 10
-8 32 -6 21 3 29 2 18 -1 -37 -11 -39 -23 -2 -17 20 3 42 1 49 -4 19 -15 59
-23 52 -11 -7 11 23 8 61 -7 17 -7 16 -5 -4 13 -25 23 -32 25 -66 23 l-20 -1
20 9 c11 5 27 5 37 0 24 -13 35 -11 35 5 0 8 -7 11 -18 9 -9 -3 -20 0 -23 6
-5 8 -13 8 -27 0 -11 -5 -30 -7 -42 -3 -12 5 -25 7 -29 6 -5 -1 -8 3 -8 9 0 7
12 8 33 4 23 -4 28 -3 17 4 -8 5 -11 13 -7 17 3 4 12 2 19 -3 7 -6 29 -14 48
-18 33 -7 34 -6 15 9 l-20 15 20 0 c29 0 56 -24 49 -43 -4 -10 -1 -16 7 -17 8
0 4 -4 -9 -10 -25 -10 -21 -29 6 -29 10 0 2 -10 -21 -25 -41 -28 -45 -35 -21
-35 8 0 13 4 10 9 -3 5 5 11 19 13 20 4 23 2 15 -7 -8 -9 -7 -15 2 -18 8 -4 7
-6 -4 -6 -11 -1 -15 -6 -12 -16 4 -8 10 -12 15 -9 5 3 6 -3 2 -12 -4 -10 -8
-13 -10 -7 -3 7 -11 9 -19 6 -12 -4 -9 -10 13 -24 15 -11 22 -19 15 -19 -7 0
-10 -4 -7 -10 3 -5 1 -10 -5 -10 -6 0 -8 -4 -5 -10 11 -17 14 -49 6 -54 -4 -3
-7 -42 -5 -88 1 -45 -2 -91 -8 -101 -7 -14 -7 -22 2 -27 8 -5 9 -14 3 -26 -5
-11 -9 -64 -8 -119 2 -120 -10 -189 -42 -232 -12 -17 -23 -36 -23 -41 0 -5 -7
-15 -15 -22 -8 -7 -15 -23 -15 -36 0 -15 -6 -24 -15 -24 -8 0 -15 -4 -15 -8 0
-4 -14 -13 -31 -19 -20 -8 -29 -17 -27 -30 2 -13 -8 -21 -42 -33 -25 -8 -48
-20 -52 -27 -5 -6 -29 -11 -54 -10 -28 0 -49 -5 -54 -13 -5 -8 -30 -15 -59
-16 -28 -2 -56 -6 -62 -9 -6 -4 -50 -9 -97 -12 -47 -2 -91 -8 -97 -13 -6 -5
-35 -9 -65 -10 -30 0 -74 0 -97 -1 -23 0 -47 -6 -53 -15 -15 -17 -53 -18 -81
-3 -15 8 -24 7 -36 -2 -10 -9 -60 -14 -156 -15 -78 -2 -167 -6 -197 -9 -95 -9
-340 -11 -340 -2 0 4 -9 6 -19 2 -11 -3 -22 -1 -26 5 -4 7 -27 9 -63 5 -32 -3
-70 -2 -87 3 -33 9 -41 35 -12 40 11 2 17 -3 17 -13 0 -15 2 -15 16 -4 13 11
17 10 25 -4 10 -18 39 -24 39 -8 0 5 11 19 25 32 30 29 33 53 6 44 -11 -3 -22
-1 -26 5 -8 13 13 80 26 80 5 0 9 6 9 13 0 7 14 21 30 30 17 10 30 23 30 29 0
5 7 8 15 4 9 -3 15 0 15 9 0 9 -6 12 -16 8 -14 -5 -15 -3 -5 16 7 12 16 19 20
16 11 -6 20 40 11 55 -5 9 -9 9 -14 1 -10 -16 -29 -14 -23 2 4 10 -2 13 -21
10 -24 -3 -24 -2 -7 6 19 9 19 10 -2 10 -25 1 -26 0 -17 -23 3 -9 12 -16 20
-16 21 0 17 -15 -8 -28 -36 -17 -81 -19 -86 -3 -3 10 0 12 11 8 8 -3 28 -2 44
3 17 5 21 9 10 9 -10 1 -16 5 -13 10 4 5 1 11 -5 13 -19 6 13 48 37 48 12 0
24 7 28 15 3 8 11 15 19 15 7 0 13 9 14 20 2 19 0 19 -23 4 -13 -9 -24 -12
-24 -7 0 16 24 33 47 33 17 0 21 -4 16 -16 -5 -14 -2 -16 22 -10 45 11 98 40
103 55 3 9 -7 6 -27 -8 -43 -31 -49 -21 -12 18 29 31 51 40 51 21 0 -5 13 -7
32 -3 22 4 29 3 24 -5 -4 -7 -13 -12 -21 -12 -8 0 -23 -9 -34 -21 -22 -24 -67
-49 -87 -49 -8 0 -14 -4 -14 -8 0 -5 -18 -14 -40 -21 -22 -6 -40 -17 -40 -22
0 -6 7 -8 16 -5 9 3 28 6 42 6 22 0 24 2 12 11 -12 8 -10 9 10 7 14 -2 24 -9
23 -16 -3 -14 23 -16 32 -2 3 6 1 10 -4 10 -6 0 -11 7 -11 15 0 8 2 15 4 15 2
0 13 3 23 6 15 5 15 4 3 -5 -8 -5 -11 -13 -7 -17 10 -11 37 16 37 37 0 20 16
24 78 20 24 -2 40 5 62 26 36 34 37 46 7 66 -19 12 -26 13 -41 1 -22 -16 -42
-8 -26 11 6 8 28 12 55 10 25 -1 45 1 45 6 0 5 -25 8 -55 8 -30 -1 -55 -6 -55
-10 0 -5 -8 -9 -17 -9 -15 0 -16 -2 -3 -10 20 -13 6 -23 -31 -22 -37 1 -47 8
-31 24 16 16 15 28 -3 28 -8 0 -15 5 -15 10 0 6 2 10 4 10 2 0 13 3 23 6 15 5
15 4 3 -5 -12 -9 -11 -11 10 -12 14 0 19 -3 13 -6 -7 -2 -13 -13 -13 -24 0
-18 1 -18 20 1 16 16 18 25 10 40 -7 13 -7 21 2 26 7 4 8 3 4 -4 -4 -7 -3 -12
2 -12 6 0 12 7 16 15 4 10 -1 15 -14 15 -11 0 -20 5 -20 11 0 6 -9 8 -21 4
-15 -5 -19 -4 -15 4 4 6 15 11 25 11 10 0 35 7 54 15 20 8 39 15 43 15 4 0 1
-7 -6 -15 -7 -8 -9 -15 -5 -15 5 0 0 -9 -11 -21 -16 -17 -16 -22 -4 -29 12 -8
11 -10 -5 -10 -16 0 -17 -2 -5 -9 20 -13 32 -3 24 21 -6 22 9 38 36 38 11 -1
10 -4 -4 -15 -11 -8 -17 -15 -14 -15 4 0 13 -3 22 -6 11 -4 16 -1 16 11 0 12
7 16 29 13 16 -1 37 4 47 12 16 13 17 13 11 -2 -4 -12 -2 -15 8 -11 8 3 12 10
9 15 -4 6 1 8 13 4 11 -3 38 0 61 8 23 9 46 15 50 15 4 0 9 8 11 18 4 24 21
33 46 27 11 -3 37 2 58 11 40 17 51 31 15 19 -20 -6 -21 -5 -9 10 7 9 10 16 6
16 -4 0 -15 -10 -25 -22 -14 -17 -30 -23 -65 -24 -43 -1 -45 0 -30 16 26 28
17 30 -15 2 -32 -28 -39 -45 -16 -36 7 3 16 -2 19 -10 4 -9 2 -16 -2 -16 -5 0
-16 -3 -24 -6 -10 -3 -17 2 -20 13 -4 16 -6 16 -12 -4 -7 -21 -45 -40 -45 -21
0 11 -43 -1 -48 -13 -4 -10 -32 -12 -32 -3 0 4 8 13 18 21 15 12 13 13 -18 7
-19 -4 -40 -7 -47 -7 -7 0 -10 -4 -7 -9 3 -4 -5 -8 -18 -8 -16 0 -19 3 -10 8
7 5 10 16 7 24 -4 9 -1 19 6 24 7 4 10 3 6 -3 -4 -6 13 -10 41 -11 43 -1 47 1
48 23 1 13 -5 26 -13 29 -8 3 -11 2 -8 -3 8 -14 -14 -24 -52 -23 -18 1 -33 -3
-33 -9 0 -5 -16 -17 -35 -25 -45 -18 -49 -18 -27 4 9 11 21 17 26 14 5 -3 6 0
2 6 -4 8 0 12 11 12 14 0 15 2 4 9 -10 7 -8 12 9 24 12 9 28 13 36 10 8 -3 17
2 20 11 9 24 51 20 59 -5 5 -15 10 -18 20 -9 8 6 35 15 62 20 47 8 47 8 10 9
-21 0 -47 -4 -57 -9 -13 -7 -21 -7 -25 0 -3 5 1 10 10 10 9 0 14 4 11 9 -6 8
30 25 47 22 5 -1 5 3 2 9 -10 16 34 60 54 54 11 -4 10 -2 -3 7 -17 10 -23 8
-46 -17 -46 -50 -87 -75 -122 -72 -18 1 -33 -3 -36 -10 -2 -6 -9 -12 -15 -12
-7 0 1 12 16 26 16 14 26 28 23 31 -9 9 -63 -42 -58 -55 2 -7 -1 -12 -7 -12
-6 0 -11 4 -11 9 0 5 -12 14 -27 20 l-28 11 28 -4 c15 -2 30 1 34 7 3 6 1 7
-5 3 -7 -4 -12 -3 -12 2 0 5 9 12 19 15 26 6 48 47 26 47 -8 0 -15 7 -15 16 0
10 6 14 14 11 16 -6 36 11 36 31 0 10 -3 10 -16 -2 -15 -15 -34 -21 -34 -11 0
6 50 55 56 55 3 0 2 -4 -1 -10 -8 -13 -3 -13 32 1 22 8 30 7 38 -5 6 -8 29
-17 50 -20 22 -3 34 -3 27 0 -6 3 -9 11 -6 16 5 7 2 8 -6 3 -8 -5 -18 -1 -26
10 -7 10 -20 15 -28 12 -9 -4 -18 -2 -21 3 -4 6 -18 7 -32 4 -24 -7 -25 -6 -8
14 16 18 20 19 33 6 20 -20 25 -12 12 21 -9 23 -8 28 10 32 11 3 17 10 13 17
-4 8 -2 7 7 -1 7 -6 20 -9 29 -6 9 3 0 -9 -19 -26 -19 -17 -29 -31 -22 -31 7
0 10 -5 6 -11 -4 -8 1 -9 17 -4 19 5 21 4 9 -5 -12 -8 -8 -9 14 -4 21 5 27 4
22 -5 -12 -19 12 -12 33 11 11 11 17 26 14 32 -4 6 1 5 10 -2 12 -11 20 -11
34 -2 16 10 16 11 -4 7 -26 -6 -28 -2 -11 17 10 10 17 10 38 -1 14 -7 36 -13
49 -13 20 0 23 -14 3 -15 -27 -2 -112 -29 -112 -35 0 -5 -10 -12 -21 -15 -13
-5 -17 -10 -11 -14 7 -4 1 -13 -16 -22 -29 -15 -47 -17 -74 -5 -10 5 -23 6
-30 3 -8 -4 -5 -8 10 -12 12 -4 22 -15 22 -24 1 -14 2 -14 11 2 5 9 14 17 20
17 5 0 4 -9 -3 -20 -7 -10 -9 -22 -5 -26 9 -9 37 27 31 38 -3 5 6 8 20 8 14 0
26 -5 26 -10 0 -7 6 -7 19 0 28 14 33 -10 7 -33 -21 -18 -21 -18 4 -6 35 17
52 41 37 52 -8 6 -5 7 6 3 23 -8 57 10 57 30 0 9 5 12 13 8 8 -5 8 -2 -2 9
-15 18 -26 23 -16 7 3 -5 -2 -10 -12 -10 -15 0 -15 -2 -4 -9 12 -8 8 -11 -15
-16 -16 -3 -36 -8 -44 -9 -8 -2 -23 -7 -32 -11 -30 -12 -20 13 11 30 21 10 31
11 33 3 3 -7 13 -2 26 12 12 13 20 26 17 29 -2 4 5 8 16 8 10 1 19 -2 19 -8 0
-5 5 -9 10 -9 6 0 10 8 8 18 -2 14 6 18 47 20 56 4 79 17 49 29 -10 4 -25 13
-32 20 -11 11 -11 13 2 13 8 0 21 -7 30 -15 8 -8 24 -15 37 -15 18 0 19 2 9
15 -11 13 -9 15 13 13 14 -1 23 -7 20 -14 -5 -15 17 -30 26 -18 3 5 17 15 31
22 25 11 25 11 -4 5 -22 -4 -27 -3 -24 8 3 8 12 12 19 10 8 -2 31 -4 52 -4 21
0 33 -3 27 -7 -6 -4 9 -7 33 -6 25 1 40 4 34 8 -9 6 -8 8 1 8 7 0 20 7 28 15
13 13 11 14 -18 9 -25 -4 -29 -3 -18 5 13 9 12 11 -5 12 -11 1 -26 1 -34 0 -7
-2 -10 2 -6 8 3 6 -1 11 -10 11 -10 0 -13 -5 -9 -12 5 -7 3 -8 -6 -3 -10 6 -9
11 5 22 13 9 22 10 29 3 13 -13 56 -13 56 1 0 5 5 7 10 4 6 -3 10 -2 10 4 0 5
-13 8 -28 6 -16 -2 -35 1 -43 6 -10 6 -7 9 13 9 20 0 26 4 22 15 -4 8 -1 15 5
15 6 0 11 -4 11 -10 0 -5 7 -10 15 -10 8 0 15 -7 15 -15 0 -8 9 -15 20 -15 11
0 20 -4 20 -10 0 -5 4 -10 8 -10 23 0 4 31 -35 56 -23 15 -43 28 -43 30 0 5
45 -9 56 -17 6 -5 14 -6 18 -2 4 4 -8 13 -26 20 -33 13 -33 13 -3 8 17 -3 38
-8 47 -11 13 -4 16 -1 12 10 -5 12 -2 15 10 10 9 -3 16 -1 16 5 0 6 5 11 11
11 5 0 7 -4 4 -10 -3 -5 1 -10 9 -10 9 0 15 3 15 8 -3 15 2 17 31 18 16 1 27
-3 23 -9z m145 0 c-1 -2 3 -11 11 -20 19 -23 5 -21 -18 2 -13 13 -16 21 -8 24
13 5 21 2 15 -6z m-1558 -1 c0 -2 -7 -7 -16 -10 -8 -3 -12 -2 -9 4 6 10 25 14
25 6z m70 -5 c0 -5 -7 -11 -15 -15 -15 -5 -20 5 -8 17 9 10 23 9 23 -2z m310
-11 c-8 -6 -21 -8 -29 -5 -8 3 -11 0 -8 -9 4 -11 1 -13 -10 -9 -11 4 -14 2 -9
-5 4 -7 5 -12 2 -12 -2 0 -12 -3 -22 -7 -15 -6 -14 -2 5 26 13 18 29 30 36 28
6 -3 18 -1 26 3 7 5 16 7 18 4 3 -3 -1 -9 -9 -14z m1125 1 c-3 -6 -18 -11 -33
-11 -29 0 -20 15 13 22 24 5 29 3 20 -11z m194 15 c-2 -2 -13 -6 -24 -8 -11
-1 -25 -10 -32 -18 -6 -8 -15 -12 -19 -7 -11 11 27 36 55 37 13 0 22 -2 20 -4z
m-2049 -16 c0 -5 -5 -10 -11 -10 -5 0 -7 5 -4 10 3 6 8 10 11 10 2 0 4 -4 4
-10z m610 -2 c0 -4 -11 -7 -24 -6 -14 1 -23 5 -21 8 5 9 45 7 45 -2z m196 -1
c4 -4 -5 -6 -19 -5 -15 1 -27 6 -27 10 0 9 36 5 46 -5z m1411 7 c-3 -4 -2 -14
3 -24 8 -15 6 -16 -24 -6 -41 12 -42 31 -2 34 16 2 27 0 23 -4z m-2032 -23
c-3 -6 -11 -11 -16 -11 -5 0 -4 6 3 14 14 16 24 13 13 -3z m281 -6 c-29 -27
-42 -32 -30 -12 16 24 29 36 43 37 8 0 3 -10 -13 -25z m384 21 c0 -11 -19 -15
-25 -6 -3 5 1 10 9 10 9 0 16 -2 16 -4z m96 -21 c-16 -14 -33 -25 -38 -25 -5
0 -6 -4 -3 -10 7 -12 -22 -2 -48 15 -17 12 -17 13 -1 19 10 4 22 2 27 -3 5 -5
16 -7 24 -4 12 5 12 7 1 15 -9 6 -6 7 10 3 13 -4 22 -2 22 4 0 6 8 11 18 11
13 0 11 -6 -12 -25z m1199 15 c3 -6 -1 -7 -9 -4 -18 7 -21 14 -7 14 6 0 13 -4
16 -10z m-258 -6 c-3 -3 -12 -4 -19 -1 -8 3 -5 6 6 6 11 1 17 -2 13 -5z
m-1763 -19 c-4 -8 -11 -15 -16 -15 -6 0 -5 6 2 15 7 8 14 15 16 15 2 0 1 -7
-2 -15z m511 7 c-6 -5 -23 -14 -40 -21 -30 -13 -30 -13 -11 8 11 12 28 21 40
21 11 0 16 -4 11 -8z m90 -19 c-18 -34 -13 -40 13 -16 49 44 56 49 49 31 -4
-12 0 -18 16 -21 12 -2 8 -3 -9 -2 -35 4 -48 -3 -57 -27 -9 -25 -36 -12 -33
16 3 26 14 46 26 46 5 0 3 -12 -5 -27z m785 17 c0 -5 -11 -12 -25 -16 -13 -3
-23 -10 -22 -16 1 -5 -13 -18 -31 -28 -46 -25 -52 -33 -19 -25 18 5 27 3 27
-4 0 -7 6 -11 13 -10 28 3 44 -2 44 -15 0 -10 -7 -12 -29 -5 -16 4 -35 6 -43
3 -7 -3 -16 0 -20 5 -3 6 -10 9 -14 7 -18 -11 -7 32 11 45 12 8 32 24 46 36
13 13 28 20 33 17 5 -3 9 0 9 5 0 6 5 11 10 11 6 0 10 -4 10 -10z m-2612 -26
c0 -15 5 -30 12 -34 7 -5 2 -7 -15 -7 -16 0 -22 2 -15 7 9 6 7 11 -6 19 -11 6
-13 11 -6 11 6 0 11 3 11 8 -2 14 1 22 10 22 5 0 9 -12 9 -26z m1490 -11 c-6
-7 -17 -13 -24 -13 -8 0 -14 -5 -14 -12 0 -6 -2 -9 -5 -7 -2 3 -2 15 2 28 4
15 8 19 13 11 5 -9 10 -5 15 10 5 17 9 19 16 9 4 -8 3 -19 -3 -26z m645 0 c-3
-7 -13 -13 -22 -13 -14 0 -14 -2 -1 -10 19 -12 33 -13 25 -1 -3 5 4 12 15 16
11 4 18 11 15 16 -4 5 3 9 15 9 19 0 20 -2 6 -15 -9 -9 -19 -23 -24 -31 -9
-16 -62 -27 -62 -13 0 13 -38 11 -46 -3 -5 -8 -2 -9 10 -5 10 4 15 3 11 -3 -6
-10 -1 -11 55 -14 23 -1 32 5 41 26 6 15 17 29 25 32 9 3 12 1 9 -4 -3 -6 -2
-10 3 -10 5 0 19 -9 32 -20 l23 -20 -29 6 c-21 4 -35 0 -49 -14 -26 -23 -72
-38 -54 -16 7 8 7 14 1 14 -5 0 -15 -7 -22 -15 -16 -20 -90 -18 -83 2 6 15
-23 18 -32 3 -3 -5 -11 -10 -17 -10 -6 0 -3 8 8 19 10 10 22 17 26 15 8 -5 41
26 35 33 -5 5 -69 -28 -80 -42 -5 -6 -7 -3 -4 6 3 9 0 22 -6 29 -9 9 -3 10 28
5 30 -5 36 -4 25 4 -13 10 -13 11 0 12 8 1 20 3 25 4 6 2 15 3 20 4 6 1 3 6
-5 11 -12 8 -11 10 8 10 22 0 26 -18 7 -32 -7 -5 -7 -8 0 -8 15 0 62 40 47 40
-7 0 -10 4 -7 10 8 14 34 -11 28 -27z m-473 23 c0 -2 -9 -11 -19 -21 -19 -16
-20 -16 -18 2 0 11 9 20 19 20 10 1 18 0 18 -1z m110 -21 c0 -3 -11 -10 -25
-15 -14 -5 -25 -15 -25 -21 0 -8 4 -8 15 1 18 15 20 -1 3 -18 -16 -16 1 -15
32 3 30 17 40 18 40 5 0 -5 -8 -10 -17 -10 -10 0 -33 -9 -51 -20 l-32 -20 6
25 c5 20 3 24 -10 19 -9 -3 -13 -11 -9 -17 3 -5 1 -7 -5 -3 -6 3 -17 -3 -25
-14 -7 -11 -16 -17 -19 -14 -6 6 76 90 95 98 17 6 27 7 27 1z m190 -4 c0 -5
-6 -11 -14 -14 -9 -4 -12 -14 -9 -25 3 -12 -3 -28 -16 -41 -22 -22 -61 -29
-61 -10 0 6 6 9 14 6 8 -3 22 1 33 8 10 8 14 15 8 15 -5 0 -3 5 5 10 13 9 13
11 0 20 -9 6 -18 6 -24 0 -6 -6 -17 -10 -25 -10 -8 0 -31 -15 -50 -32 -18 -18
-31 -28 -27 -21 3 6 2 14 -4 18 -5 3 -10 1 -10 -5 0 -6 -5 -8 -11 -4 -14 8 9
24 25 18 7 -3 21 4 32 14 10 10 41 25 67 32 26 8 47 18 47 22 0 4 5 8 10 8 6
0 10 -4 10 -9z m-585 -22 c-3 -12 -7 -24 -10 -27 -3 -3 -3 5 -1 19 6 30 5 29
10 29 3 0 3 -10 1 -21z m505 17 c0 -3 -4 -8 -10 -11 -5 -3 -10 -1 -10 4 0 6 5
11 10 11 6 0 10 -2 10 -4z m385 -6 c-3 -5 -15 -10 -26 -10 -11 0 -17 5 -14 10
3 6 15 10 26 10 11 0 17 -4 14 -10z m-745 -10 c0 -5 -5 -10 -11 -10 -5 0 -7 5
-4 10 3 6 8 10 11 10 2 0 4 -4 4 -10z m70 -5 c0 -8 -4 -15 -10 -15 -5 0 -7 7
-4 15 4 8 8 15 10 15 2 0 4 -7 4 -15z m100 11 c0 -2 -7 -6 -15 -10 -8 -3 -15
-1 -15 4 0 6 7 10 15 10 8 0 15 -2 15 -4z m1480 -6 c0 -5 -5 -10 -11 -10 -5 0
-7 5 -4 10 3 6 8 10 11 10 2 0 4 -4 4 -10z m-1613 -6 c-3 -3 -12 -4 -19 -1 -8
3 -5 6 6 6 11 1 17 -2 13 -5z m73 2 c0 -2 -7 -7 -16 -10 -8 -3 -12 -2 -9 4 6
10 25 14 25 6z m678 -2 c27 -8 29 -24 3 -24 -26 0 -51 10 -51 21 0 10 16 11
48 3z m158 -26 c3 -31 -23 -46 -44 -24 -12 12 -12 17 4 34 24 26 36 23 40 -10z
m729 12 c3 -5 1 -10 -4 -10 -6 0 -11 5 -11 10 0 6 2 10 4 10 3 0 8 -4 11 -10z
m-3190 -10 c3 -5 4 -10 1 -10 -2 0 -11 -3 -19 -6 -8 -3 -17 2 -20 10 -7 18 27
23 38 6z m1435 6 c0 -2 -7 -7 -16 -10 -8 -3 -12 -2 -9 4 6 10 25 14 25 6z m80
-6 c0 -5 -5 -10 -11 -10 -5 0 -7 5 -4 10 3 6 8 10 11 10 2 0 4 -4 4 -10z m80
-12 c0 -3 -9 -6 -20 -5 -11 1 -20 5 -20 9 0 3 9 6 20 5 11 -1 20 -5 20 -9z
m35 2 c-3 -5 -11 -10 -16 -10 -6 0 -7 5 -4 10 3 6 11 10 16 10 6 0 7 -4 4 -10z
m265 -6 c0 -2 -12 -4 -26 -4 -14 0 -23 4 -20 9 6 8 46 4 46 -5z m-493 -2 c8
-5 7 -15 -3 -37 l-14 -30 6 35 6 35 -21 -19 c-23 -21 -29 -14 -8 9 14 16 18
17 34 7z m808 -12 c-10 -11 -22 -20 -26 -20 -5 0 -1 9 8 20 10 11 22 20 27 20
5 0 1 -9 -9 -20z m172 9 c26 -10 27 -12 8 -19 -11 -5 -27 -9 -35 -9 -13 -1
-13 0 0 9 14 9 13 11 -9 14 -5 0 -13 4 -17 9 -11 11 21 9 53 -4z m-2388 -20
c-12 -7 -11 -9 1 -9 11 0 11 -3 2 -12 -8 -8 -8 -15 -2 -24 8 -8 5 -13 -9 -17
-18 -4 -20 0 -18 32 2 37 14 54 30 44 5 -3 3 -9 -4 -14z m1461 17 c0 -2 -7 -7
-16 -10 -8 -3 -12 -2 -9 4 6 10 25 14 25 6z m22 -18 c-8 -8 -9 -15 0 -25 8
-11 7 -12 -6 -7 -9 3 -16 10 -16 15 0 12 24 38 29 33 3 -2 -1 -10 -7 -16z
m838 12 c0 -4 -13 -13 -30 -19 -16 -5 -30 -12 -30 -15 0 -3 7 -3 15 0 8 4 15
2 15 -4 0 -13 -84 -26 -88 -13 -2 5 -11 7 -20 4 -13 -5 -14 -3 -6 6 9 10 17
10 34 1 15 -8 20 -8 16 -1 -4 6 0 11 11 12 17 1 17 2 0 6 -17 4 -17 6 -2 17
19 14 85 18 85 6z m-749 -23 c-10 -9 -11 -8 -5 6 3 10 9 15 12 12 3 -3 0 -11
-7 -18z m129 15 c0 -12 -39 -52 -50 -52 -18 0 -10 18 10 23 11 3 20 12 20 21
0 9 5 16 10 16 6 0 10 -4 10 -8z m150 4 c0 -3 -4 -8 -10 -11 -5 -3 -10 -1 -10
4 0 6 5 11 10 11 6 0 10 -2 10 -4z m104 -18 c-6 -20 -5 -21 10 -9 14 12 16 12
10 -3 -3 -9 -14 -15 -22 -14 -9 2 -17 -3 -18 -9 -1 -7 -2 -17 -3 -22 -3 -26
-126 -120 -139 -107 -8 9 25 35 51 41 17 5 25 13 24 26 -2 24 -12 24 -37 -1
-22 -22 -35 -27 -24 -9 3 6 0 15 -7 20 -11 7 -10 9 4 9 9 0 17 4 17 8 0 5 12
14 28 21 23 10 25 10 10 -2 -30 -23 -20 -27 27 -10 25 8 43 19 40 23 -3 5 -1
11 5 15 5 3 10 11 10 16 0 6 -6 7 -12 3 -9 -5 -9 -2 1 9 19 24 34 21 25 -5z
m-194 1 c0 -5 5 -7 12 -3 6 4 3 -5 -8 -19 -10 -15 -28 -26 -39 -26 -19 0 -19
1 1 9 31 12 43 35 16 28 -12 -4 -24 -2 -27 2 -5 7 10 15 38 19 4 0 7 -4 7 -10z
m-940 -3 c0 -3 -4 -8 -10 -11 -5 -3 -10 -1 -10 4 0 6 5 11 10 11 6 0 10 -2 10
-4z m787 -23 c0 -16 -1 -20 -4 -10 -5 19 -14 21 -28 9 -18 -15 -71 -35 -58
-22 6 7 9 19 6 26 -3 8 0 14 7 14 6 0 8 -4 5 -10 -9 -15 19 -12 41 5 26 20 29
19 31 -12z m219 8 c-4 -5 -1 -11 4 -13 17 -5 -71 -58 -97 -58 -27 0 -28 3 -6
21 11 10 14 10 9 2 -10 -18 10 -16 39 3 14 9 22 20 19 25 -8 13 5 29 22 29 8
0 13 -4 10 -9z m81 -8 c0 -7 -4 -13 -9 -13 -4 0 -8 4 -8 9 0 5 -10 7 -22 3
-14 -3 -19 -1 -14 6 9 16 53 11 53 -5z m227 7 c-15 -15 -92 -26 -79 -12 9 9
37 17 75 21 10 1 11 -2 4 -9z m-784 -4 c0 -3 -4 -8 -10 -11 -5 -3 -10 -1 -10
4 0 6 5 11 10 11 6 0 10 -2 10 -4z m990 -22 c0 -2 -13 -3 -29 -2 -23 2 -28 5
-19 15 7 9 15 10 29 2 10 -5 19 -12 19 -15z m-1126 1 c-4 -8 -10 -15 -15 -15
-4 0 -6 7 -3 15 4 8 10 15 15 15 4 0 6 -7 3 -15z m566 5 c0 -5 -5 -10 -11 -10
-5 0 -7 5 -4 10 3 6 8 10 11 10 2 0 4 -4 4 -10z m315 -21 c5 -6 5 -13 -3 -21
-6 -6 -15 -8 -19 -4 -4 4 -1 11 7 16 10 7 1 8 -27 4 -26 -3 -43 -2 -43 4 0 22
61 22 85 1z m-1008 5 c-3 -3 -12 -4 -19 -1 -8 3 -5 6 6 6 11 1 17 -2 13 -5z
m400 -18 c1 -12 -1 -15 -4 -8 -6 16 -23 15 -23 -2 0 -8 -7 -17 -16 -20 -14 -5
-15 -4 -4 9 10 12 10 15 -1 15 -10 1 -9 4 3 14 25 19 44 16 45 -8z m-1465 4
c5 0 2 -7 -7 -16 -13 -14 -14 -19 -3 -25 8 -5 9 -9 2 -9 -18 0 -24 -38 -8 -51
8 -6 11 -16 8 -21 -3 -5 -7 -29 -8 -52 -2 -24 -6 -48 -9 -53 -4 -6 -2 -13 4
-15 14 -5 20 -236 7 -244 -5 -3 -5 -11 1 -17 11 -14 9 -192 -2 -203 -4 -5 -15
-1 -23 8 -14 14 -17 52 -19 265 -1 146 2 253 8 261 6 8 6 12 -2 12 -12 0 -10
48 3 68 4 7 4 18 0 24 -21 34 -5 84 23 73 8 -3 19 -5 25 -5z m1395 -5 c0 -8
-2 -13 -5 -11 -2 3 -16 0 -30 -5 -30 -11 -24 -3 10 17 13 6 23 12 24 13 0 1 1
-6 1 -14z m158 -11 c-1 -17 3 -22 16 -21 11 1 19 6 19 12 0 7 7 12 15 12 8 0
15 -4 15 -9 0 -4 -5 -8 -11 -8 -6 0 -9 -9 -6 -19 3 -14 1 -18 -9 -14 -8 3 -14
9 -14 15 0 5 -6 6 -12 2 -7 -5 -21 -9 -30 -9 -17 -2 -17 0 -1 17 22 24 8 36
-17 13 -19 -17 -19 -17 -7 8 15 32 46 32 42 1z m125 16 c0 -5 -6 -10 -12 -10
-9 0 -8 -3 2 -10 12 -7 10 -11 -10 -18 -26 -10 -42 -6 -24 6 6 4 13 15 17 25
7 18 27 24 27 7z m-409 -25 c17 11 9 -2 -13 -21 -22 -19 -22 -19 -8 0 14 18
13 19 -7 14 -19 -5 -20 -4 -10 13 10 16 13 16 20 4 4 -9 12 -13 18 -10z m484
-25 c-4 -12 -22 -28 -40 -36 -19 -7 -36 -18 -40 -24 -3 -5 -15 -10 -26 -10
-10 0 -19 -4 -19 -10 0 -5 -5 -10 -12 -10 -6 0 -3 9 7 20 10 11 26 20 37 20
10 0 18 5 18 10 0 6 6 10 13 10 6 0 21 8 32 16 19 15 19 15 -7 12 -15 -2 -36
-12 -47 -22 -26 -23 -28 -16 -3 10 9 11 31 21 47 22 17 1 32 7 34 13 1 6 5 8
8 5 3 -2 2 -14 -2 -26z m402 15 c0 -8 -4 -15 -8 -15 -4 0 -9 7 -13 15 -3 9 0
15 8 15 7 0 13 -7 13 -15z m-37 -15 c-8 -5 -19 -10 -25 -10 -5 0 -3 5 5 10 8
5 20 10 25 10 6 0 3 -5 -5 -10z m-837 -15 c-3 -9 -8 -14 -10 -11 -3 3 -2 9 2
15 9 16 15 13 8 -4z m18 -18 c-10 -9 -11 -8 -5 6 3 10 9 15 12 12 3 -3 0 -11
-7 -18z m349 19 c0 -3 -4 -8 -10 -11 -5 -3 -10 -1 -10 4 0 6 5 11 10 11 6 0
10 -2 10 -4z m-205 -16 c3 -5 2 -10 -4 -10 -5 0 -13 5 -16 10 -3 6 -2 10 4 10
5 0 13 -4 16 -10z m95 6 c0 -3 -4 -8 -10 -11 -5 -3 -10 -1 -10 4 0 6 5 11 10
11 6 0 10 -2 10 -4z m-345 -15 c3 -5 2 -12 -3 -15 -5 -3 -9 1 -9 9 0 17 3 19
12 6z m352 -19 c-15 -10 -33 -27 -41 -37 -12 -17 -13 -16 -11 6 1 15 11 27 31
36 43 18 53 16 21 -5z m260 -2 c-3 -11 -1 -20 5 -20 5 0 6 -6 1 -12 -4 -7 -8
-19 -10 -27 -3 -21 -15 -30 -51 -37 -21 -4 -32 -3 -32 5 0 6 10 11 23 11 28 0
41 10 45 34 2 11 -1 17 -10 14 -7 -3 -13 -11 -13 -18 0 -7 -7 -15 -15 -17 -12
-4 -12 -3 -1 5 11 8 10 11 -4 19 -15 9 -13 11 13 16 18 4 33 14 37 27 8 26 19
26 12 0z m-417 6 c0 -3 -4 -8 -10 -11 -5 -3 -10 -1 -10 4 0 6 5 11 10 11 6 0
10 -2 10 -4z m86 -17 c0 -9 -5 -15 -11 -12 -7 2 -12 10 -12 17 0 7 5 13 12 13
6 0 11 -8 11 -18z m132 4 c-22 -46 -33 -63 -39 -63 -11 0 23 69 34 70 5 0 7
-3 5 -7z m157 -3 c-3 -5 -15 -10 -26 -10 -10 0 -19 5 -19 10 0 6 12 10 26 10
14 0 23 -4 19 -10z m-335 -25 c-7 -9 -15 -13 -19 -10 -3 3 1 10 9 15 21 14 24
12 10 -5z m216 -17 c-8 -18 -20 -34 -28 -37 -11 -3 -11 -1 0 11 9 11 10 18 2
23 -5 3 -10 1 -10 -5 0 -6 -5 -8 -12 -4 -7 4 2 14 23 24 19 10 35 18 36 19 1
1 -4 -13 -11 -31z m63 19 c11 -14 5 -27 -11 -27 -5 0 -6 5 -3 10 3 6 3 10 -2
10 -10 0 -35 -52 -28 -59 3 -2 12 4 20 15 14 19 14 19 12 -1 -1 -16 -8 -21
-33 -22 l-32 -1 24 36 c13 19 24 39 24 43 0 13 16 11 29 -4z m-471 -32 c0 -14
-1 -25 -2 -23 -1 2 -8 12 -16 22 -10 13 -10 17 -2 12 6 -4 12 -2 12 3 0 6 2
11 4 11 2 0 4 -11 4 -25z m602 10 c-7 -9 -15 -13 -19 -10 -3 3 1 10 9 15 21
14 24 12 10 -5z m-540 -5 c0 -5 -4 -10 -10 -10 -5 0 -10 5 -10 10 0 6 5 10 10
10 6 0 10 -4 10 -10z m90 -1 c0 -6 7 -9 15 -5 8 3 15 1 15 -3 0 -15 -24 -18
-37 -5 -16 15 -17 24 -3 24 6 0 10 -5 10 -11z m-190 -13 c0 -3 -4 -8 -10 -11
-5 -3 -10 -1 -10 4 0 6 5 11 10 11 6 0 10 -2 10 -4z m314 -37 c-9 -10 -20 -17
-23 -14 -3 4 1 10 9 15 13 8 13 10 1 10 -11 0 -9 4 5 14 25 19 31 1 8 -25z
m63 16 c0 -8 -4 -12 -9 -9 -4 3 -8 9 -8 15 0 5 4 9 8 9 5 0 9 -7 9 -15z m-497
1 c0 -3 -4 -8 -10 -11 -5 -3 -10 -1 -10 4 0 6 5 11 10 11 6 0 10 -2 10 -4z
m224 -9 c-4 -13 -44 -41 -44 -32 0 8 34 43 42 44 4 1 5 -5 2 -12z m132 -23
c-5 -12 -2 -15 12 -12 11 3 19 0 19 -7 0 -7 -6 -11 -14 -8 -7 3 -19 0 -26 -6
-10 -8 -19 -7 -33 5 -18 15 -18 15 3 9 16 -4 23 -1 28 15 3 11 9 20 12 20 3 0
2 -7 -1 -16z m190 -21 c-3 -30 -39 -63 -67 -63 -23 0 -33 16 -14 24 8 3 15 1
15 -4 0 -5 7 -7 16 -3 13 5 10 9 -12 18 -16 7 -33 11 -39 10 -5 -1 -7 0 -3 2
4 2 5 10 2 18 -3 7 0 16 7 21 9 5 10 2 6 -9 -5 -13 0 -16 23 -14 15 1 26 5 24
9 -5 8 28 28 38 22 3 -2 5 -16 4 -31z m141 31 c13 -4 20 -10 17 -15 -3 -5 4
-9 15 -9 12 0 21 -3 21 -7 -1 -13 -27 -44 -36 -42 -21 4 -25 -2 -13 -18 12
-15 12 -16 -4 -10 -14 5 -20 2 -24 -13 -3 -11 -16 -23 -29 -26 -13 -3 -21 -11
-18 -18 3 -8 -9 -20 -28 -29 l-33 -17 27 0 c20 0 26 -4 22 -15 -7 -17 -44 -21
-44 -5 0 7 -6 7 -19 0 -30 -16 -34 -12 -14 15 10 13 26 25 36 25 9 0 17 5 17
10 0 6 7 10 15 10 8 0 12 6 9 13 -2 7 6 19 20 26 14 8 22 19 19 27 -4 10 0 12
11 8 9 -3 16 -1 16 5 0 6 -6 11 -14 11 -7 0 -19 6 -26 14 -6 8 -18 12 -25 10
-12 -5 -12 -1 -2 20 15 32 41 41 84 30z m-407 -36 c0 -19 -16 -5 -17 14 -2 18
0 20 7 8 5 -8 10 -18 10 -22z m314 17 c-4 -8 -13 -15 -21 -15 -13 0 -13 3 -3
15 7 8 16 15 21 15 5 0 6 -7 3 -15z m-514 -19 c0 -11 -19 -15 -25 -6 -3 5 1
10 9 10 9 0 16 -2 16 -4z m160 0 c0 -3 -4 -8 -10 -11 -5 -3 -10 -1 -10 4 0 6
5 11 10 11 6 0 10 -2 10 -4z m-41 -39 c-7 -7 -21 -13 -31 -13 -24 0 -23 5 5
16 32 13 40 12 26 -3z m115 -1 c-10 -8 -21 -12 -24 -10 -5 6 21 24 34 24 6 0
1 -6 -10 -14z m56 10 c0 -2 -7 -6 -15 -10 -8 -3 -15 -1 -15 4 0 6 7 10 15 10
8 0 15 -2 15 -4z m194 -21 c-9 -14 -23 -25 -30 -25 -21 0 -17 21 6 27 11 3 17
9 14 14 -3 5 2 9 11 9 14 0 14 -2 -1 -25z m41 -5 c-9 -16 -20 -30 -26 -30 -5
0 -2 14 8 30 9 17 21 30 25 30 5 0 2 -13 -7 -30z m-620 10 c3 -5 1 -10 -4 -10
-6 0 -11 5 -11 10 0 6 2 10 4 10 3 0 8 -4 11 -10z m150 0 c-3 -5 -12 -10 -18
-10 -7 0 -6 4 3 10 19 12 23 12 15 0z m305 -10 c0 -11 5 -20 10 -20 16 0 12
-17 -6 -24 -12 -4 -15 -2 -11 9 4 8 2 17 -4 20 -5 4 -7 11 -4 16 15 23 -10 4
-63 -48 -31 -31 -49 -54 -39 -50 9 3 17 2 17 -2 0 -5 -8 -12 -17 -15 -15 -6
-15 -8 -3 -16 17 -11 9 -13 -14 -4 -9 3 -16 10 -16 16 0 5 5 6 10 3 6 -3 10
-2 10 4 0 5 -7 14 -16 19 -11 6 -13 11 -5 16 6 4 11 2 11 -4 0 -7 15 3 33 22
18 18 32 38 30 43 -3 10 38 32 65 34 6 1 12 -8 12 -19z m-565 0 c-3 -5 -11
-10 -16 -10 -6 0 -7 5 -4 10 3 6 11 10 16 10 6 0 7 -4 4 -10z m78 -5 c-3 -9
-8 -14 -10 -11 -3 3 -2 9 2 15 9 16 15 13 8 -4z m377 -15 c0 -5 -5 -10 -11
-10 -5 0 -7 5 -4 10 3 6 8 10 11 10 2 0 4 -4 4 -10z m-280 -15 c-7 -8 -17 -15
-22 -15 -6 0 -5 7 2 15 7 8 17 15 22 15 6 0 5 -7 -2 -15z m243 8 c-7 -2 -13
-12 -13 -20 0 -9 -3 -14 -6 -10 -10 10 4 37 18 36 10 0 10 -2 1 -6z m-133 -12
c0 -5 -10 -11 -22 -14 -22 -6 -22 -6 -4 8 23 17 26 18 26 6z m260 -1 c0 -5 -7
-10 -15 -10 -8 0 -15 -4 -15 -9 0 -5 11 -8 25 -6 28 3 32 -7 10 -29 -8 -8 -15
-19 -15 -25 0 -12 -13 -15 -23 -5 -4 4 3 15 15 25 20 18 20 19 2 20 -10 1 -22
1 -26 0 -13 -2 -9 17 8 33 18 18 34 21 34 6z m100 -3 c0 -5 -7 -7 -14 -4 -9 4
-13 1 -10 -6 2 -7 14 -13 25 -13 14 0 19 5 16 18 -3 10 -1 18 4 18 5 0 9 -6 9
-14 0 -9 8 -13 23 -10 12 2 4 -5 -18 -16 -22 -11 -36 -20 -31 -20 5 0 3 -7 -4
-15 -7 -8 -17 -12 -22 -9 -6 4 -5 10 3 15 10 6 8 9 -8 9 -12 0 -29 -7 -37 -16
-14 -13 -16 -13 -16 0 0 8 10 23 23 33 13 10 22 24 20 30 -3 7 4 11 16 10 12
-1 21 -5 21 -10z m-313 -19 c-3 -8 -6 -5 -6 6 -1 11 2 17 5 13 3 -3 4 -12 1
-19z m103 12 c0 -5 -5 -10 -11 -10 -5 0 -7 5 -4 10 3 6 8 10 11 10 2 0 4 -4 4
-10z m520 0 c0 -5 -10 -10 -22 -10 -19 0 -20 2 -8 10 19 13 30 13 30 0z m-566
-32 c-3 -5 -11 -5 -18 1 -7 6 -17 7 -21 3 -5 -4 -5 -2 -2 5 4 6 16 9 27 6 11
-3 17 -9 14 -15z m401 -8 c-3 -5 -21 -10 -38 -9 -31 1 -31 1 -7 9 36 11 52 11
45 0z m-705 -25 c-7 -9 -15 -13 -17 -11 -6 6 20 36 26 30 2 -2 -2 -10 -9 -19z
m420 21 c0 -3 -4 -8 -10 -11 -5 -3 -10 -1 -10 4 0 6 5 11 10 11 6 0 10 -2 10
-4z m-240 -10 c0 -3 -4 -8 -10 -11 -5 -3 -10 -1 -10 4 0 6 5 11 10 11 6 0 10
-2 10 -4z m70 -11 c-7 -9 -15 -13 -19 -10 -3 3 1 10 9 15 21 14 24 12 10 -5z
m67 0 c0 -8 -4 -15 -9 -15 -4 0 -8 5 -8 11 0 6 -7 8 -16 5 -8 -3 -12 -2 -9 4
10 16 42 12 42 -5z m223 -18 c0 -2 -8 -13 -17 -24 -19 -21 -80 -42 -68 -23 4
6 -6 10 -24 10 -17 0 -31 4 -31 10 0 5 14 8 30 6 17 -2 33 0 36 5 3 5 10 9 15
9 6 0 7 -4 4 -10 -10 -16 13 -12 27 5 12 13 28 20 28 12z m-380 -11 c0 -2 -7
-6 -15 -10 -8 -3 -15 -1 -15 4 0 6 7 10 15 10 8 0 15 -2 15 -4z m147 -4 c8 -5
7 -12 -4 -27 -15 -20 -15 -20 -8 3 7 25 -10 31 -19 6 -4 -9 -9 -14 -13 -11 -6
7 15 37 26 37 3 0 11 -4 18 -8z m283 4 c0 -3 -4 -8 -10 -11 -5 -3 -10 -1 -10
4 0 6 5 11 10 11 6 0 10 -2 10 -4z m-390 -16 c0 -5 -5 -10 -11 -10 -5 0 -7 5
-4 10 3 6 8 10 11 10 2 0 4 -4 4 -10z m50 -23 c0 -4 -6 -2 -14 5 -8 7 -12 17
-9 22 5 8 23 -12 23 -27z m310 27 c0 -3 -7 -12 -15 -20 -16 -17 -18 -14 -9 10
6 15 24 23 24 10z m100 -4 c0 -5 -12 -11 -27 -11 -18 -1 -21 -3 -10 -6 9 -2
15 -8 12 -13 -3 -5 -12 -7 -21 -3 -8 3 -24 -3 -36 -13 -19 -17 -19 -16 3 18
18 29 31 38 52 38 15 0 27 -4 27 -10z m-235 -28 c14 -10 17 -32 4 -32 -6 0 -8
-7 -5 -17 4 -10 4 -14 0 -10 -4 4 -13 -2 -21 -13 -17 -24 -30 -26 -35 -3 -3
15 -5 15 -18 1 -25 -25 -58 -39 -65 -28 -3 5 1 10 9 10 20 0 31 20 16 30 -9 5
-9 9 -1 14 6 4 11 3 11 -3 0 -6 13 -8 33 -4 17 3 37 6 42 7 6 0 13 6 17 11 11
15 10 37 -2 30 -5 -3 -10 -1 -10 4 0 13 11 14 25 3z m395 1 c0 -5 -7 -17 -15
-27 -8 -10 -12 -23 -9 -27 8 -13 -46 -23 -59 -10 -8 8 -8 11 2 11 9 0 11 8 7
25 -4 14 -2 25 4 25 5 0 10 -5 10 -11 0 -5 10 -3 22 5 24 17 38 20 38 9z
m-469 -16 c-6 -8 -8 -17 -4 -20 3 -4 1 -7 -5 -7 -16 0 -15 27 1 33 19 8 20 8
8 -6z m39 -3 c0 -8 -5 -12 -10 -9 -6 4 -8 11 -5 16 9 14 15 11 15 -7z m-120
-3 c0 -5 -10 -11 -22 -14 -22 -6 -22 -6 -4 8 23 17 26 18 26 6z m260 -4 c12 4
12 2 -1 -9 -9 -7 -14 -19 -12 -25 3 -7 0 -13 -6 -13 -5 0 -8 9 -6 19 2 14 -1
18 -10 15 -8 -3 -12 -11 -9 -19 3 -7 -3 -15 -12 -19 -23 -9 -30 0 -14 19 7 8
10 21 7 29 -5 11 0 13 21 7 15 -5 34 -6 42 -4z m305 3 c-3 -5 -11 -10 -16 -10
-6 0 -7 5 -4 10 3 6 11 10 16 10 6 0 7 -4 4 -10z m-660 -19 c-3 -6 -11 -11
-16 -11 -5 0 -4 6 3 14 14 16 24 13 13 -3z m125 15 c0 -3 -4 -8 -10 -11 -5 -3
-10 -1 -10 4 0 6 5 11 10 11 6 0 10 -2 10 -4z m325 -6 c-3 -5 -13 -10 -21 -10
-8 0 -13 -4 -10 -9 9 -13 -19 -32 -38 -25 -24 9 -20 18 22 36 43 20 56 22 47
8z m-556 -3 c-2 -1 -12 -9 -22 -16 -15 -12 -17 -12 -11 3 3 9 13 16 22 16 8 0
13 -1 11 -3z m71 -21 c0 -3 -4 -8 -10 -11 -5 -3 -10 -1 -10 4 0 6 5 11 10 11
6 0 10 -2 10 -4z m-230 -46 c0 -5 -5 -10 -11 -10 -5 0 -7 5 -4 10 3 6 8 10 11
10 2 0 4 -4 4 -10z m504 -15 c-8 -19 3 -19 23 0 8 9 18 13 22 9 3 -3 -4 -13
-16 -21 -13 -9 -23 -22 -23 -29 0 -8 -4 -14 -9 -14 -5 0 -11 -9 -14 -20 -5
-20 -27 -28 -27 -10 0 6 3 10 8 10 4 0 12 12 19 26 19 42 -8 24 -32 -22 -12
-21 -27 -40 -33 -41 -18 -4 -14 14 4 21 9 3 14 13 10 21 -3 9 3 19 14 25 11 6
20 15 20 21 0 12 22 38 32 39 4 0 5 -7 2 -15z m-64 1 c0 -3 -4 -8 -10 -11 -5
-3 -10 -1 -10 4 0 6 5 11 10 11 6 0 10 -2 10 -4z m-410 -16 c0 -5 -5 -10 -11
-10 -5 0 -7 5 -4 10 3 6 8 10 11 10 2 0 4 -4 4 -10z m250 -5 c-14 -17 -40 -20
-40 -5 0 5 6 7 14 4 8 -3 17 -1 21 5 3 6 9 11 12 11 3 0 0 -7 -7 -15z m133
-13 c-6 -4 -11 -16 -10 -27 2 -24 -46 -50 -69 -37 -13 7 -13 10 -1 21 9 7 18
8 21 2 10 -15 48 0 42 16 -7 18 1 33 17 33 9 0 9 -2 0 -8z m-193 -6 c0 -3 -4
-8 -10 -11 -5 -3 -10 -1 -10 4 0 6 5 11 10 11 6 0 10 -2 10 -4z m100 0 c0 -3
-4 -8 -10 -11 -5 -3 -10 -1 -10 4 0 6 5 11 10 11 6 0 10 -2 10 -4z m-107 -45
c-13 -11 -23 -25 -23 -33 0 -10 -2 -10 -9 1 -9 14 22 50 44 50 6 0 0 -8 -12
-18z m137 -41 c0 -5 -5 -10 -11 -10 -5 0 -7 5 -4 10 3 6 8 10 11 10 2 0 4 -4
4 -10z m-80 -20 c0 -5 -5 -10 -11 -10 -5 0 -7 5 -4 10 3 6 8 10 11 10 2 0 4
-4 4 -10z m43 3 c-7 -2 -19 -2 -25 0 -7 3 -2 5 12 5 14 0 19 -2 13 -5z m127
-12 c0 -11 -9 -21 -22 -24 -31 -8 -33 -2 -9 22 26 26 31 26 31 2z m160 9 c0
-5 -4 -10 -10 -10 -5 0 -10 -6 -10 -14 0 -16 -18 -31 -27 -22 -8 7 25 56 37
56 6 0 10 -4 10 -10z m-225 -10 c-3 -5 -11 -10 -16 -10 -6 0 -7 5 -4 10 3 6
11 10 16 10 6 0 7 -4 4 -10z m157 -17 c-6 -2 -10 -8 -8 -12 3 -4 -4 -8 -15 -8
-19 -2 -25 8 -12 20 3 4 16 7 27 6 12 0 15 -3 8 -6z m-72 -22 c0 -5 -7 -11
-15 -15 -9 -3 -15 0 -15 9 0 8 7 15 15 15 8 0 15 -4 15 -9z m-140 -37 c0 -8
-4 -12 -10 -9 -5 3 -10 10 -10 16 0 5 5 9 10 9 6 0 10 -7 10 -16z m220 8 c0
-4 -10 -12 -22 -17 -13 -6 -24 -20 -26 -32 -2 -13 -8 -23 -13 -23 -5 0 -14
-11 -19 -25 -5 -14 -14 -25 -20 -25 -13 0 -13 17 -1 25 9 5 41 62 41 73 0 2
-8 1 -17 -3 -28 -11 -84 -12 -73 -1 5 5 18 11 27 13 10 1 38 7 63 12 25 4 48
9 53 10 4 0 7 -2 7 -7z m-340 -27 c0 -8 -7 -15 -16 -15 -14 0 -14 3 -4 15 7 8
14 15 16 15 2 0 4 -7 4 -15z m151 -8 c-10 -9 -11 -8 -5 6 3 10 9 15 12 12 3
-3 0 -11 -7 -18z m-61 -11 c0 -11 -19 -15 -25 -6 -3 5 1 10 9 10 9 0 16 -2 16
-4z m140 -18 c0 -4 -5 -8 -10 -8 -6 0 -15 -10 -20 -22 l-9 -23 -7 23 c-3 12
-10 22 -15 22 -5 0 -9 3 -9 8 0 4 16 7 35 8 19 0 35 -3 35 -8z m-160 -38 c-20
-13 -33 -13 -25 0 3 6 14 10 23 10 15 0 15 -2 2 -10z m-15 -40 c3 -5 -1 -10
-10 -10 -9 0 -13 5 -10 10 3 6 8 10 10 10 2 0 7 -4 10 -10z m201 -5 c4 -8 13
-15 21 -15 8 0 11 -5 7 -11 -7 -12 -53 -4 -69 12 -6 7 -5 13 5 19 21 14 30 12
36 -5z m-96 -32 c-11 -17 -11 -17 -6 0 3 10 6 24 7 30 0 9 2 9 5 0 3 -7 0 -20
-6 -30z m-160 7 c0 -5 -5 -10 -11 -10 -5 0 -7 5 -4 10 3 6 8 10 11 10 2 0 4
-4 4 -10z m114 -2 c-16 -29 -26 -36 -41 -31 -13 5 -11 9 8 24 28 22 43 24 33
7z m16 -48 c0 -5 -7 -10 -16 -10 -8 0 -12 5 -9 10 3 6 10 10 16 10 5 0 9 -4 9
-10z"/>
<path d="M3918 3963 c7 -3 16 -2 19 1 4 3 -2 6 -13 5 -11 0 -14 -3 -6 -6z"/>
<path d="M4000 3890 c-9 -6 -10 -10 -3 -10 6 0 15 5 18 10 8 12 4 12 -15 0z"/>
<path d="M3770 3860 c0 -5 5 -10 11 -10 5 0 7 5 4 10 -3 6 -8 10 -11 10 -2 0
-4 -4 -4 -10z"/>
<path d="M3500 3829 c-17 -13 -18 -17 -5 -10 33 17 51 31 40 31 -5 0 -21 -10
-35 -21z"/>
<path d="M4466 3794 c-4 -10 -1 -14 6 -12 15 5 23 28 10 28 -5 0 -13 -7 -16
-16z"/>
<path d="M3580 3700 c-12 -8 -11 -10 8 -10 12 0 22 5 22 10 0 13 -11 13 -30 0z"/>
<path d="M3838 3621 c-15 -18 -15 -19 5 -25 12 -3 26 0 32 6 7 8 5 9 -7 5 -10
-4 -18 -2 -18 3 0 6 6 10 14 10 8 0 18 5 21 10 11 18 -30 10 -47 -9z"/>
<path d="M4470 3649 c0 -5 5 -7 10 -4 6 3 10 8 10 11 0 2 -4 4 -10 4 -5 0 -10
-5 -10 -11z"/>
<path d="M4405 3631 c-3 -7 3 -11 15 -11 12 0 18 -4 15 -10 -4 -6 1 -7 11 -3
12 4 15 3 10 -5 -10 -16 -43 -15 -49 1 -4 9 -7 9 -17 0 -11 -10 -10 -14 6 -19
10 -4 26 -13 35 -20 14 -12 44 -21 77 -23 6 -1 12 -5 12 -11 0 -5 -10 -8 -22
-6 -13 3 -36 5 -51 5 -16 1 -26 5 -22 11 3 6 -2 13 -12 17 -10 3 -26 15 -36
25 -13 13 -25 16 -44 12 -18 -5 -24 -4 -19 5 4 6 11 9 16 6 5 -3 11 -1 14 4 3
5 15 7 26 4 11 -3 20 0 20 6 0 12 -35 14 -64 2 -10 -4 -40 -4 -67 -1 -26 3
-45 2 -43 -2 3 -5 0 -15 -6 -24 -10 -11 -16 -12 -27 -2 -23 18 -49 19 -64 2
-11 -13 -10 -15 2 -13 22 4 80 -12 74 -21 -10 -16 25 -19 57 -5 18 8 28 14 21
15 -7 0 -10 6 -7 14 4 9 -3 16 -18 19 -13 2 -7 4 14 3 28 -1 34 -4 26 -13 -8
-10 -3 -13 23 -13 37 -1 75 -23 65 -38 -3 -6 6 -13 19 -16 14 -4 23 -11 20
-16 -3 -6 5 -9 19 -8 15 1 26 6 26 10 0 4 5 8 12 8 9 0 9 -3 0 -12 -18 -18
-15 -28 8 -28 13 0 18 5 14 15 -4 10 0 15 11 15 9 0 13 -5 9 -11 -4 -7 2 -9
15 -7 12 1 20 8 19 13 -2 6 -6 9 -10 8 -5 -2 -8 4 -8 12 0 18 12 19 28 3 10
-10 14 -10 21 0 4 7 15 10 24 6 9 -3 14 -10 11 -15 -3 -5 -10 -7 -15 -4 -5 4
-9 1 -9 -4 0 -16 21 -13 42 6 11 9 18 11 18 5 0 -7 7 -12 16 -12 8 0 12 -4 9
-10 -3 -5 2 -10 11 -10 10 0 26 -8 37 -17 11 -10 17 -12 13 -5 -4 7 -2 12 6
13 7 0 -9 11 -37 25 -27 13 -44 24 -37 24 7 0 21 -4 31 -10 16 -8 19 -5 19 16
0 17 -4 22 -12 15 -7 -6 -18 -6 -26 -1 -8 5 -21 5 -31 -1 -11 -5 -27 -5 -43 1
-14 5 -26 6 -26 2 0 -4 -4 -1 -8 5 -6 9 -17 10 -38 4 -42 -12 -94 -3 -87 16 3
8 12 12 20 8 11 -4 13 -1 9 12 -6 14 -4 15 5 6 6 -6 18 -9 25 -6 8 3 14 0 14
-6 0 -6 -7 -11 -15 -11 -8 0 -15 -4 -15 -10 0 -13 3 -13 33 3 l26 13 -30 18
c-17 10 -40 19 -52 21 -12 1 -29 6 -38 10 -10 3 -20 2 -24 -4z m-161 -56 c-7
-17 -20 -20 -29 -6 -3 5 3 12 12 14 10 3 19 5 20 6 1 0 0 -6 -3 -14z"/>
<path d="M4598 3568 c6 -6 18 -8 28 -6 14 3 12 5 -9 10 -19 3 -25 2 -19 -4z"/>
<path d="M4285 3560 c-9 -14 -85 -53 -110 -57 -14 -2 -11 3 10 14 17 9 25 18
18 20 -7 2 -21 0 -32 -6 -27 -15 -31 -14 -25 4 4 8 2 15 -4 15 -5 0 -13 -7
-16 -16 -8 -22 -8 -24 8 -24 8 0 16 -7 20 -15 7 -19 -1 -19 -20 -1 -11 11 -20
12 -44 3 -20 -7 -25 -14 -17 -19 7 -4 8 -8 1 -8 -5 0 -19 7 -30 15 -17 13 -17
14 -2 15 9 0 19 3 21 8 6 8 -66 10 -73 1 -3 -3 -20 -11 -39 -17 -25 -9 -37 -9
-47 -1 -10 8 -14 8 -14 1 0 -6 -9 -9 -19 -7 -11 2 -22 -3 -25 -11 -4 -12 -1
-14 14 -9 19 6 29 -8 13 -18 -5 -2 -3 -2 4 -1 7 2 15 -1 18 -6 4 -6 -1 -10 -9
-10 -8 0 -18 -5 -22 -11 -5 -8 0 -10 17 -6 24 6 95 -6 107 -18 4 -3 0 -10 -8
-15 -12 -8 -10 -10 7 -10 27 0 35 -11 22 -30 -7 -12 -11 -12 -17 -2 -5 7 -32
15 -60 19 -44 5 -50 8 -40 20 7 9 23 13 40 11 16 -3 31 -1 35 4 4 7 -112 6
-134 -1 -2 -1 -3 -12 -3 -26 0 -25 -20 -50 -56 -71 -17 -10 -16 -11 9 -9 15 2
27 -1 27 -6 0 -5 10 -9 21 -9 19 0 20 -2 8 -17 -12 -15 -12 -16 1 -8 8 5 24 9
35 8 15 -1 16 0 3 3 -27 8 -32 41 -9 65 18 20 24 21 47 10 22 -10 25 -9 21 3
-4 10 0 12 14 9 16 -5 17 -8 7 -21 -11 -13 -10 -14 7 -6 11 6 32 10 46 9 18
-1 25 3 22 12 -3 7 2 13 10 13 20 0 31 31 15 41 -7 4 -10 10 -8 13 9 9 130 -7
130 -16 0 -6 -11 -7 -27 -4 -30 8 -86 -11 -80 -28 2 -6 12 -13 23 -14 34 -7
40 -22 6 -18 -20 2 -38 -3 -51 -15 -16 -15 -25 -16 -52 -9 -24 7 -40 6 -62 -5
-38 -19 -72 -20 -38 -1 17 10 20 14 9 18 -8 4 -20 -3 -26 -13 -11 -17 -9 -21
10 -28 26 -9 51 -4 42 10 -8 13 70 11 83 -2 8 -8 14 -7 24 4 7 8 21 12 31 9
10 -2 18 1 18 8 0 10 15 11 58 7 48 -5 59 -4 59 8 0 17 -8 19 -23 7 -5 -5 -28
1 -52 13 -34 18 -39 24 -26 29 10 4 21 1 26 -6 6 -10 8 -10 8 -1 0 7 7 10 16
6 13 -5 13 -8 2 -15 -8 -6 4 -8 36 -4 27 3 58 6 70 6 16 0 17 3 7 9 -11 7 -11
10 0 17 7 4 14 3 17 -4 2 -7 11 -12 20 -11 11 0 12 2 4 6 -6 2 -10 9 -6 14 12
20 12 46 -1 46 -7 0 -11 -6 -8 -13 6 -15 -13 -28 -22 -14 -3 5 -1 19 5 31 10
19 10 20 -8 10 -15 -8 -21 -7 -26 4 -3 8 -2 17 3 19 11 7 63 -3 78 -16 9 -7
13 -7 13 1 0 6 8 11 18 11 14 0 15 2 2 10 -8 5 -11 12 -7 16 3 4 12 2 20 -4 7
-6 33 -13 57 -16 38 -4 42 -3 25 7 -23 13 -18 12 -72 22 -24 4 -43 12 -43 17
0 5 5 6 12 2 7 -4 8 -3 4 4 -4 7 -24 12 -44 13 -32 0 -34 1 -14 9 12 5 22 14
22 20 0 13 -27 13 -35 0z m32 -46 c11 4 13 2 9 -9 -3 -8 -1 -15 4 -15 6 0 10
-4 10 -10 0 -6 -19 -7 -46 -4 -30 3 -51 1 -62 -8 -10 -8 -13 -9 -9 -1 4 7 0
13 -10 15 -14 2 -10 8 17 24 25 15 40 19 53 12 10 -5 25 -7 34 -4z m-297 -34
c16 -10 15 -11 -15 -29 -17 -11 -17 -12 -1 -7 13 5 17 2 13 -8 -4 -10 0 -12
14 -9 11 3 22 9 25 14 9 15 24 10 18 -5 -5 -13 -54 -36 -77 -36 -5 0 -6 7 -3
16 4 12 1 14 -14 9 -15 -5 -18 -3 -14 8 8 21 -28 32 -39 12 -7 -13 -12 -14
-23 -4 -8 6 -14 15 -14 19 0 12 51 18 81 10 16 -5 31 -5 34 0 3 5 -7 11 -22
13 -27 4 -27 4 -3 5 14 1 32 -2 40 -8z m103 3 c-7 -2 -19 -2 -25 0 -7 3 -2 5
12 5 14 0 19 -2 13 -5z m62 -3 c-3 -5 1 -10 9 -10 9 0 16 -4 16 -10 0 -5 6
-10 14 -10 12 0 30 -27 26 -39 -1 -2 4 -7 12 -12 19 -12 -2 -29 -47 -36 -28
-4 -36 -3 -31 5 4 7 16 12 27 12 10 0 19 4 19 10 0 5 -7 7 -15 4 -17 -7 -50
22 -35 31 5 3 10 1 10 -4 0 -6 12 -11 26 -11 14 0 23 4 19 10 -4 6 -11 8 -16
5 -5 -4 -9 -1 -9 4 0 14 -37 14 -45 1 -4 -6 -16 -8 -27 -4 -14 4 -18 2 -14 -5
4 -6 2 -11 -4 -11 -21 0 -4 24 21 30 18 4 20 7 9 12 -18 7 -62 -26 -52 -38 4
-5 1 -4 -5 1 -7 6 -10 20 -7 31 4 15 14 20 42 21 20 1 38 6 40 12 2 6 8 11 13
11 6 0 7 -4 4 -10z m-235 -45 c0 -8 -4 -15 -10 -15 -5 0 -7 7 -4 15 4 8 8 15
10 15 2 0 4 -7 4 -15z m-91 -98 c-11 -10 -19 -22 -19 -27 0 -6 -8 -10 -17 -10
-17 1 -17 1 0 14 9 7 17 16 17 19 0 3 5 18 11 34 10 26 12 26 19 8 5 -14 2
-25 -11 -38z m180 44 c9 -6 10 -11 2 -15 -13 -8 -31 1 -31 15 0 11 11 11 29 0z"/>
<path d="M4255 3501 c-17 -7 -15 -9 13 -13 20 -3 31 -1 29 6 -5 14 -18 16 -42
7z"/>
<path d="M4330 3556 c0 -2 7 -6 15 -10 8 -3 15 -1 15 4 0 6 -7 10 -15 10 -8 0
-15 -2 -15 -4z"/>
<path d="M4630 3490 c-13 -8 -13 -10 2 -10 9 0 20 5 23 10 8 13 -5 13 -25 0z"/>
<path d="M4513 3473 c-17 -2 -34 -11 -37 -20 -5 -12 -4 -13 7 -5 10 9 18 8 32
-2 20 -14 49 -11 40 4 -3 5 4 8 15 7 20 -1 29 -17 10 -17 -18 0 -10 -17 13
-28 22 -11 22 -11 -5 -11 -14 -1 -35 -4 -45 -7 -16 -6 -16 -5 2 9 17 14 17 16
4 17 -9 0 -22 -6 -28 -13 -8 -11 -5 -16 15 -26 34 -15 101 13 83 35 -6 8 -8
14 -3 15 5 0 21 3 36 5 14 2 29 0 33 -5 3 -6 13 -7 22 -4 11 4 14 3 9 -5 -4
-7 -1 -12 6 -13 7 -1 2 -5 -12 -9 -20 -6 -21 -8 -5 -8 22 -1 68 16 48 17 -7 1
-10 8 -7 16 5 11 -1 15 -22 15 -16 0 -39 3 -52 6 -21 6 -21 7 -5 20 17 12 17
13 1 14 -9 0 -19 -4 -23 -9 -5 -9 -27 -8 -80 2 -11 2 -34 2 -52 0z m107 -23
c0 -5 -5 -10 -11 -10 -5 0 -7 5 -4 10 3 6 8 10 11 10 2 0 4 -4 4 -10z"/>
<path d="M3766 3451 c-4 -6 -2 -11 4 -11 6 0 8 -4 5 -10 -3 -5 1 -10 9 -10 8
0 18 5 21 10 3 6 16 10 28 11 21 0 21 1 -2 10 -18 7 -27 6 -33 -3 -6 -11 -10
-10 -17 1 -6 9 -11 10 -15 2z"/>
<path d="M4342 3429 c-10 -16 -9 -19 5 -19 14 -1 12 -4 -7 -15 -24 -14 -24
-14 -4 -15 12 0 29 11 38 25 15 23 45 27 31 4 -4 -5 3 -9 14 -9 14 0 19 5 15
15 -8 19 5 19 30 0 25 -19 37 -19 30 0 -4 8 -14 15 -24 15 -10 0 -21 6 -23 13
-4 9 -8 8 -16 -3 -7 -10 -14 -11 -18 -5 -14 18 -59 14 -71 -6z"/>
<path d="M3823 3419 c-14 -14 -56 -18 -64 -7 -3 5 -34 -19 -68 -52 -35 -33
-67 -60 -72 -60 -5 0 -9 -6 -9 -14 0 -24 -26 -38 -40 -21 -10 12 -10 15 0 15
8 0 10 3 7 7 -4 3 -19 -6 -34 -21 -14 -15 -20 -24 -11 -21 8 3 26 2 40 -4 15
-5 30 -6 39 0 12 7 12 9 -1 9 -13 0 -13 1 0 10 8 5 15 15 15 22 0 7 5 13 10
13 6 0 16 4 24 9 9 6 12 5 8 -1 -4 -6 2 -13 12 -16 14 -3 18 -1 14 10 -5 12
-1 14 18 8 18 -5 21 -4 9 4 -8 6 -23 11 -34 11 -15 0 -16 3 -7 14 15 18 46 26
62 15 10 -6 7 -9 -10 -9 -31 0 -25 -5 16 -13 26 -5 31 -3 26 8 -3 10 1 15 14
15 27 0 34 9 22 31 -5 11 -6 19 -2 18 13 -3 43 12 43 22 0 12 -14 11 -27 -2z
m-33 -29 c0 -12 -25 -30 -42 -30 -20 0 -23 11 -8 26 10 10 50 14 50 4z"/>
<path d="M4645 3409 c-9 -13 23 -49 44 -49 14 0 14 -2 1 -10 -20 -13 -63 -13
-77 1 -15 15 -35 8 -25 -8 4 -7 24 -14 44 -17 20 -2 45 -9 56 -15 25 -13 32
-14 32 -2 0 5 -10 11 -22 15 -19 5 -21 8 -8 16 8 5 31 10 50 10 26 0 31 3 20
10 -8 5 -24 7 -35 5 -11 -3 -31 4 -45 15 -14 11 -19 20 -12 20 7 0 10 5 7 10
-8 13 -22 13 -30 -1z"/>
<path d="M3401 3381 c-6 -10 -8 -21 -4 -24 3 -4 -1 -9 -9 -12 -15 -6 -14 -45
1 -45 16 1 33 19 27 29 -4 6 0 11 8 11 9 0 16 5 16 10 0 6 -7 10 -15 10 -22 0
-18 15 8 28 l22 11 -22 0 c-12 1 -27 -7 -32 -18z"/>
<path d="M4381 3381 c-11 -7 -11 -9 0 -14 8 -3 -2 -6 -21 -6 -32 -1 -33 -2
-15 -14 11 -8 36 -17 55 -20 30 -5 32 -4 13 5 -13 6 -23 15 -23 20 0 11 7 10
33 -3 21 -10 21 -10 3 5 -19 16 -19 16 5 16 13 0 31 5 39 11 12 8 8 9 -15 6
-16 -2 -39 -8 -49 -12 -14 -6 -17 -5 -12 3 9 14 6 15 -13 3z"/>
<path d="M4479 3371 c-9 -9 -21 -26 -27 -37 -10 -18 -8 -23 8 -27 24 -6 36 8
14 17 -12 5 -11 10 11 30 14 13 22 26 18 29 -4 2 -15 -3 -24 -12z"/>
<path d="M4615 3370 c3 -5 11 -10 16 -10 6 0 7 5 4 10 -3 6 -11 10 -16 10 -6
0 -7 -4 -4 -10z"/>
<path d="M4520 3352 c0 -5 11 -12 25 -15 16 -3 24 0 22 7 -4 14 -47 21 -47 8z"/>
<path d="M4303 3343 c-15 -6 -17 -33 -3 -33 6 0 10 5 10 11 0 6 7 3 16 -5 14
-15 34 -14 34 1 0 4 -3 4 -6 0 -4 -3 -14 2 -23 12 -9 11 -22 17 -28 14z"/>
<path d="M4240 3320 c0 -5 4 -10 9 -10 6 0 13 5 16 10 3 6 -1 10 -9 10 -9 0
-16 -4 -16 -10z"/>
<path d="M3423 3307 c-13 -7 -23 -15 -23 -20 0 -5 10 -5 23 -1 12 5 32 8 45 7
28 -1 24 21 -4 23 -10 1 -29 -3 -41 -9z"/>
<path d="M4506 3305 c-6 -16 3 -19 28 -9 22 8 20 24 -3 24 -10 0 -21 -7 -25
-15z"/>
<path d="M4578 3313 c7 -3 16 -2 19 1 4 3 -2 6 -13 5 -11 0 -14 -3 -6 -6z"/>
<path d="M4220 3301 c0 -6 12 -11 26 -11 19 0 25 -4 20 -15 -7 -19 8 -20 23
-1 12 15 12 15 -51 32 -10 3 -18 1 -18 -5z"/>
<path d="M4390 3301 c0 -10 42 -23 49 -16 7 7 -4 15 -28 20 -11 2 -21 0 -21
-4z"/>
<path d="M4115 3290 c3 -5 16 -10 28 -10 18 0 19 2 7 10 -20 13 -43 13 -35 0z"/>
<path d="M4615 3290 c-3 -5 1 -10 10 -10 9 0 13 5 10 10 -3 6 -8 10 -10 10 -2
0 -7 -4 -10 -10z"/>
<path d="M3713 3276 c1 -6 -8 -11 -20 -12 -13 -1 -23 3 -23 7 0 5 -5 9 -11 9
-8 0 -8 -5 1 -15 7 -8 24 -15 39 -15 l26 -1 -25 -13 c-14 -8 -28 -12 -32 -10
-3 2 -9 0 -13 -6 -4 -6 5 -10 19 -10 14 0 26 5 26 10 0 6 9 10 19 10 14 0 18
5 14 20 -3 11 0 20 6 20 6 0 11 4 11 8 0 4 -9 8 -19 8 -11 0 -19 -5 -18 -10z"/>
<path d="M4162 3270 c-27 -23 -27 -26 1 -35 20 -7 18 -8 -13 -14 l-35 -7 29
-7 c20 -6 32 -4 37 5 5 7 9 8 9 2 0 -6 12 -16 26 -22 14 -7 22 -17 19 -22 -3
-6 1 -7 10 -4 12 5 7 13 -24 35 -39 29 -57 57 -45 68 4 3 9 0 11 -6 3 -7 9
-13 14 -13 6 0 7 5 4 10 -4 6 5 10 21 10 34 0 28 7 -11 13 -20 3 -38 -2 -53
-13z"/>
<path d="M4338 3283 c7 -3 16 -2 19 1 4 3 -2 6 -13 5 -11 0 -14 -3 -6 -6z"/>
<path d="M4661 3281 c-11 -7 -10 -11 7 -20 32 -17 44 -14 30 9 -14 22 -17 23
-37 11z"/>
<path d="M3420 3270 c0 -5 4 -10 9 -10 6 0 13 5 16 10 3 6 -1 10 -9 10 -9 0
-16 -4 -16 -10z"/>
<path d="M3954 3266 c-25 -14 -15 -27 35 -44 26 -9 37 -9 48 0 11 9 11 13 1
19 -10 7 -10 9 0 9 6 0 12 5 12 12 0 7 -6 6 -17 -4 -24 -20 -53 -30 -53 -17 0
6 -4 7 -10 4 -5 -3 -10 -2 -10 4 0 5 6 11 13 14 6 2 10 6 7 9 -3 3 -14 0 -26
-6z"/>
<path d="M3990 3270 c0 -5 5 -10 11 -10 5 0 7 5 4 10 -3 6 -8 10 -11 10 -2 0
-4 -4 -4 -10z"/>
<path d="M4075 3270 c-11 -5 -14 -9 -7 -9 7 -1 10 -5 7 -11 -4 -6 7 -9 27 -9
23 1 26 3 11 6 -25 5 -30 18 -10 26 6 3 8 5 2 6 -5 0 -19 -4 -30 -9z"/>
<path d="M4367 3273 c-4 -3 -17 -7 -30 -9 -12 -1 -25 -3 -29 -3 -5 -1 -8 -5
-8 -10 0 -5 10 -7 22 -3 17 4 20 2 15 -11 -4 -11 -1 -17 8 -17 9 0 12 6 8 17
-4 11 -3 14 5 9 7 -4 12 -2 12 3 0 6 12 11 28 12 24 0 25 1 7 9 -26 11 -30 11
-38 3z"/>
<path d="M4446 3271 c-23 -9 -12 -16 23 -16 13 0 26 6 28 13 5 13 -21 15 -51
3z"/>
<path d="M4536 3270 c7 -7 19 -7 35 -1 23 9 22 10 -10 10 -24 1 -32 -2 -25 -9z"/>
<path d="M3390 3260 c0 -5 5 -10 10 -10 6 0 10 5 10 10 0 6 -4 10 -10 10 -5 0
-10 -4 -10 -10z"/>
<path d="M3635 3251 c3 -6 -3 -14 -12 -20 -11 -6 -13 -11 -5 -11 17 0 43 25
35 34 -10 10 -25 7 -18 -3z"/>
<path d="M3795 3250 c3 -5 8 -10 11 -10 2 0 4 5 4 10 0 6 -5 10 -11 10 -5 0
-7 -4 -4 -10z"/>
<path d="M4620 3243 c-13 -15 -12 -16 3 -10 10 4 28 0 42 -9 13 -9 32 -14 42
-11 15 4 15 5 -3 6 -11 0 -29 10 -39 21 -22 24 -26 24 -45 3z"/>
<path d="M4545 3243 c-16 -3 -34 -9 -39 -13 -12 -12 66 0 79 11 6 6 6 8 0 8
-6 -1 -23 -4 -40 -6z"/>
<path d="M3750 3225 c-14 -17 0 -21 16 -5 7 7 24 3 52 -10 47 -23 58 -24 68
-9 4 8 0 9 -15 4 -12 -4 -21 -2 -21 4 0 6 -11 11 -24 11 -14 0 -28 5 -31 10
-9 15 -31 12 -45 -5z"/>
<path d="M3880 3230 c-12 -8 -12 -10 5 -10 11 0 27 5 35 10 12 8 12 10 -5 10
-11 0 -27 -5 -35 -10z"/>
<path d="M4223 3233 c9 -2 17 -9 17 -14 0 -12 31 -11 50 1 11 8 8 9 -12 6 -15
-3 -30 0 -33 5 -4 5 -14 8 -23 8 -15 -1 -15 -2 1 -6z"/>
<path d="M4400 3231 c0 -5 9 -7 20 -4 11 3 20 7 20 9 0 2 -9 4 -20 4 -11 0
-20 -4 -20 -9z"/>
<path d="M3568 3220 c-3 -10 -35 -18 -75 -19 -21 -1 -61 -46 -51 -57 3 -2 17
0 31 5 18 7 25 15 21 26 -5 12 1 15 27 15 l34 0 -38 -35 c-32 -30 -35 -35 -18
-35 12 0 20 3 19 8 -2 4 7 17 20 30 12 12 20 27 17 32 -4 6 5 10 19 10 18 0
24 4 20 15 -7 17 -21 20 -26 5z"/>
<path d="M3940 3210 c-13 -8 -12 -10 3 -10 9 0 17 5 17 10 0 12 -1 12 -20 0z"/>
<path d="M4038 3199 l-23 -19 36 6 c30 5 39 2 48 -13 10 -17 10 -17 11 3 0 13
-10 25 -24 32 -21 9 -29 8 -48 -9z"/>
<path d="M4370 3209 c0 -16 31 -38 53 -39 9 0 17 5 17 10 0 6 8 10 18 11 14 0
14 2 -3 9 -28 12 -37 12 -30 0 7 -11 -6 -13 -29 -4 -9 3 -13 10 -10 15 3 5 0
9 -5 9 -6 0 -11 -5 -11 -11z"/>
<path d="M4580 3205 c0 -9 5 -15 11 -13 6 2 11 8 11 13 0 5 -5 11 -11 13 -6 2
-11 -4 -11 -13z"/>
<path d="M3770 3200 c-20 -12 -5 -24 16 -12 9 5 12 12 7 15 -5 3 -15 2 -23 -3z"/>
<path d="M4289 3197 c-8 -7 -18 -20 -22 -29 -5 -16 0 -18 39 -18 25 0 43 4 40
9 -3 4 -17 6 -31 3 -18 -3 -25 0 -25 12 0 9 3 15 8 15 4 -1 16 -1 27 0 17 1
18 3 5 11 -19 12 -22 12 -41 -3z"/>
<path d="M3355 3185 l-30 -14 26 -1 c15 0 32 7 39 15 15 18 5 18 -35 0z"/>
<path d="M3650 3191 c0 -10 26 -9 36 2 4 4 -2 7 -14 7 -12 0 -22 -4 -22 -9z"/>
<path d="M3966 3193 c-4 -4 -22 -6 -40 -5 -24 2 -33 -1 -33 -12 0 -8 5 -12 10
-9 5 3 12 1 16 -4 3 -6 24 -1 50 14 29 15 37 23 24 23 -11 0 -23 -3 -27 -7z"/>
<path d="M4630 3196 c0 -2 7 -7 16 -10 8 -3 12 -2 9 4 -6 10 -25 14 -25 6z"/>
<path d="M4139 3176 c10 -11 9 -16 -5 -24 -10 -5 -12 -12 -6 -16 5 -3 15 1 22
9 16 19 41 20 34 1 -8 -20 8 -26 42 -17 l29 8 -27 6 c-16 4 -28 12 -28 17 0 6
-11 10 -25 10 -14 0 -25 5 -25 10 0 6 -5 10 -11 10 -8 0 -8 -4 0 -14z"/>
<path d="M4520 3175 c14 -8 32 -14 40 -15 23 0 -2 17 -35 24 l-30 6 25 -15z"/>
<path d="M3795 3171 c-16 -7 -14 -9 14 -14 18 -4 30 -11 27 -16 -3 -5 6 -11
20 -14 15 -3 23 0 21 7 -2 6 -8 11 -13 11 -5 0 -18 6 -29 13 -18 11 -16 12 15
7 26 -4 30 -3 15 4 -24 12 -44 12 -70 2z"/>
<path d="M3950 3145 c-7 -9 -8 -15 0 -20 5 -3 10 1 10 9 0 9 9 16 20 16 11 0
20 -6 20 -12 0 -9 3 -10 8 -2 4 6 14 13 22 16 8 3 -4 6 -27 6 -24 0 -46 -5
-53 -13z"/>
<path d="M4710 3150 c0 -5 5 -10 11 -10 5 0 7 5 4 10 -3 6 -8 10 -11 10 -2 0
-4 -4 -4 -10z"/>
<path d="M3730 3139 c0 -5 5 -7 10 -4 6 3 10 8 10 11 0 2 -4 4 -10 4 -5 0 -10
-5 -10 -11z"/>
<path d="M4520 3141 c0 -13 29 -35 37 -28 7 8 -15 37 -28 37 -5 0 -9 -4 -9 -9z"/>
<path d="M3695 3130 c-3 -5 -13 -7 -23 -4 -14 5 -15 4 -2 -5 20 -15 -1 -29
-38 -25 -15 2 -19 1 -9 -2 9 -3 15 -10 12 -15 -4 -5 0 -9 7 -9 12 0 78 55 78
66 0 8 -19 4 -25 -6z"/>
<path d="M4050 3132 c0 -5 7 -9 15 -9 8 0 12 4 9 9 -3 4 -9 8 -15 8 -5 0 -9
-4 -9 -8z"/>
<path d="M4415 3129 c-10 -15 -2 -19 23 -12 12 3 19 9 16 14 -7 12 -31 11 -39
-2z"/>
<path d="M3775 3122 c-11 -2 -24 -9 -30 -14 -7 -7 -1 -8 18 -4 17 4 26 3 23
-2 -3 -6 3 -12 14 -15 14 -3 20 0 20 10 0 13 2 14 18 2 15 -13 16 -12 3 4 -8
9 -16 15 -19 12 -3 -3 -10 -1 -16 3 -6 5 -20 7 -31 4z"/>
<path d="M4133 3123 c-33 -4 -42 -16 -22 -29 6 -3 15 -1 19 6 5 8 13 9 21 4
20 -12 39 -14 39 -3 0 5 -7 9 -16 9 -8 0 -12 5 -9 10 3 6 5 9 3 8 -2 0 -18 -3
-35 -5z"/>
<path d="M4309 3113 c-13 -17 -13 -17 6 -3 11 8 22 16 24 17 2 2 0 3 -6 3 -6
0 -17 -8 -24 -17z"/>
<path d="M3947 3101 c-37 -24 -43 -31 -26 -31 8 0 28 11 44 25 35 28 23 32
-18 6z"/>
<path d="M4365 3110 c-3 -5 1 -10 9 -10 8 0 18 5 21 10 3 6 -1 10 -9 10 -8 0
-18 -4 -21 -10z"/>
<path d="M3864 3098 c-3 -4 1 -8 8 -8 7 0 -2 -8 -21 -17 -19 -9 -29 -19 -23
-21 18 -6 66 21 70 39 3 16 -25 22 -34 7z"/>
<path d="M4006 3094 c-5 -14 -4 -15 9 -4 17 14 19 20 6 20 -5 0 -12 -7 -15
-16z"/>
<path d="M4475 3100 c3 -5 10 -10 16 -10 5 0 9 5 9 10 0 6 -7 10 -16 10 -8 0
-12 -4 -9 -10z"/>
<path d="M4200 3091 c0 -3 9 -14 20 -24 25 -21 70 -33 70 -18 0 6 -9 11 -20
11 -11 0 -20 3 -20 8 0 4 -11 12 -25 19 -14 6 -25 8 -25 4z"/>
<path d="M4588 3093 c6 -2 18 -2 25 0 6 3 1 5 -13 5 -14 0 -19 -2 -12 -5z"/>
<path d="M3275 3080 c-3 -5 -2 -10 4 -10 5 0 13 5 16 10 3 6 2 10 -4 10 -5 0
-13 -4 -16 -10z"/>
<path d="M3718 3083 c7 -3 16 -2 19 1 4 3 -2 6 -13 5 -11 0 -14 -3 -6 -6z"/>
<path d="M4280 3080 c8 -5 24 -10 34 -10 26 0 18 6 -19 14 -22 5 -26 4 -15 -4z"/>
<path d="M3540 3069 c0 -5 -3 -8 -7 -6 -5 3 -17 1 -28 -4 -16 -6 -14 -8 14 -8
30 -1 32 -3 20 -18 -12 -15 -12 -16 4 -10 11 4 17 2 17 -8 0 -17 26 -20 35 -5
3 6 2 10 -4 10 -11 0 -41 28 -41 39 0 3 12 8 27 9 41 3 41 12 0 12 -20 0 -37
-5 -37 -11z"/>
<path d="M3685 3070 c-3 -5 -4 -10 -1 -10 19 0 -33 -40 -54 -41 -19 -1 -21 -2
-6 -6 13 -4 15 -7 7 -12 -7 -5 2 -8 21 -8 18 0 25 2 15 4 -9 3 -15 8 -12 13 3
4 14 6 24 3 16 -4 19 -1 14 16 -4 16 -1 21 16 21 11 0 21 4 21 9 0 5 -10 7
-22 3 -14 -3 -19 -2 -14 6 4 7 5 12 2 12 -3 0 -8 -4 -11 -10z"/>
<path d="M4154 3064 c-18 -14 -18 -14 6 -3 31 14 36 19 24 19 -6 0 -19 -7 -30
-16z"/>
<path d="M4355 3069 c-11 -17 1 -21 15 -4 8 9 8 15 2 15 -6 0 -14 -5 -17 -11z"/>
<path d="M3753 3063 c23 -6 22 -23 -2 -23 -11 0 -23 -4 -26 -10 -8 -13 -5 -12
33 1 18 6 30 15 27 19 -3 5 1 11 7 13 7 3 -3 5 -22 5 -19 0 -27 -2 -17 -5z"/>
<path d="M3950 3060 c-12 -8 -10 -10 8 -10 13 0 20 4 17 10 -7 12 -6 12 -25 0z"/>
<path d="M4035 3060 c-3 -5 1 -10 9 -10 9 0 16 -7 16 -17 0 -9 3 -13 6 -10 4
3 16 2 28 -4 17 -8 16 -6 -4 10 -14 11 -20 21 -15 21 6 0 3 5 -5 10 -19 12
-27 12 -35 0z"/>
<path d="M4526 3062 c-7 -12 22 -38 31 -28 4 3 0 14 -9 22 -9 10 -18 12 -22 6z"/>
<path d="M3610 3050 c0 -5 -8 -7 -17 -4 -14 5 -15 4 -4 -4 15 -11 41 -5 41 9
0 5 -4 9 -10 9 -5 0 -10 -4 -10 -10z"/>
<path d="M3900 3050 c8 -5 20 -10 25 -10 6 0 3 5 -5 10 -8 5 -19 10 -25 10 -5
0 -3 -5 5 -10z"/>
<path d="M4395 3050 c4 -6 11 -8 16 -5 14 9 11 15 -7 15 -8 0 -12 -5 -9 -10z"/>
<path d="M3408 3043 c7 -3 16 -2 19 1 4 3 -2 6 -13 5 -11 0 -14 -3 -6 -6z"/>
<path d="M3450 3042 c0 -5 -11 -15 -25 -22 -14 -7 -25 -17 -25 -22 0 -5 5 -6
11 -2 6 3 15 0 20 -7 12 -20 11 -29 -4 -29 -7 0 -18 -9 -25 -20 -13 -21 -12
-21 15 -3 15 10 33 25 40 34 7 9 27 20 45 24 31 8 32 8 8 13 -23 4 -24 5 -5
13 16 6 17 8 3 8 -9 1 -24 -6 -32 -15 -25 -24 -40 -12 -16 14 17 17 18 22 5
22 -8 0 -15 -4 -15 -8z"/>
<path d="M4175 3040 c-3 -5 -1 -10 4 -10 6 0 11 5 11 10 0 6 -2 10 -4 10 -3 0
-8 -4 -11 -10z"/>
<path d="M3855 3030 c-3 -5 -2 -10 4 -10 5 0 13 5 16 10 3 6 2 10 -4 10 -5 0
-13 -4 -16 -10z"/>
<path d="M3981 3031 c-8 -5 -21 -7 -30 -4 -13 4 -14 3 -2 -5 10 -7 21 -7 34 0
10 5 28 8 38 5 10 -3 19 -1 19 4 0 12 -41 11 -59 0z"/>
<path d="M4446 3026 c-16 -7 -25 -15 -20 -18 5 -2 25 4 44 14 39 20 21 23 -24
4z"/>
<path d="M4620 3030 c0 -5 9 -10 21 -10 11 0 17 5 14 10 -3 6 -13 10 -21 10
-8 0 -14 -4 -14 -10z"/>
<path d="M3334 3018 c-3 -4 2 -8 10 -8 8 0 17 4 20 8 3 5 -2 9 -10 9 -8 0 -17
-4 -20 -9z"/>
<path d="M3808 3023 c7 -3 16 -2 19 1 4 3 -2 6 -13 5 -11 0 -14 -3 -6 -6z"/>
<path d="M4290 3001 c19 -10 41 -16 48 -14 6 3 12 0 12 -6 0 -6 5 -11 10 -11
23 0 7 21 -20 27 -16 3 -30 9 -30 14 0 5 -12 9 -27 9 -27 0 -27 0 7 -19z"/>
<path d="M3808 3003 c-10 -2 -18 -9 -18 -15 0 -5 7 -7 16 -4 9 3 22 6 30 6 9
0 12 5 9 10 -6 10 -9 11 -37 3z"/>
<path d="M4187 3003 c-4 -3 -7 -11 -7 -17 0 -6 5 -5 12 2 6 6 9 14 7 17 -3 3
-9 2 -12 -2z"/>
<path d="M3714 2991 c4 -5 0 -12 -6 -14 -7 -3 4 -6 24 -6 20 -1 39 3 42 8 3 4
-6 6 -19 3 -15 -2 -25 0 -25 7 0 6 -5 11 -11 11 -5 0 -8 -4 -5 -9z"/>
<path d="M4058 2993 c7 -3 16 -2 19 1 4 3 -2 6 -13 5 -11 0 -14 -3 -6 -6z"/>
<path d="M4210 2990 c0 -5 4 -10 9 -10 6 0 13 5 16 10 3 6 -1 10 -9 10 -9 0
-16 -4 -16 -10z"/>
<path d="M4390 2985 c7 -8 17 -12 22 -9 6 4 5 10 -3 15 -22 14 -33 10 -19 -6z"/>
<path d="M3860 2975 l-25 -14 30 4 c17 2 39 4 50 4 17 1 17 3 5 11 -20 13 -30
12 -60 -5z"/>
<path d="M4140 2980 c0 -5 -7 -7 -15 -4 -8 4 -21 1 -29 -5 -7 -6 -15 -9 -18
-6 -3 3 -17 -1 -33 -9 -26 -14 -27 -14 -6 -25 17 -10 20 -9 15 4 -6 15 4 19
39 16 9 -1 17 2 17 8 0 6 10 10 21 8 12 -1 24 4 26 11 3 6 0 12 -6 12 -6 0
-11 -4 -11 -10z"/>
<path d="M3592 2962 c-13 -10 -20 -21 -16 -25 4 -4 14 2 21 13 10 15 21 19 36
15 17 -5 19 -4 7 4 -20 14 -21 14 -48 -7z"/>
<path d="M3980 2976 c0 -9 50 -12 62 -5 8 6 -1 9 -24 9 -21 0 -38 -2 -38 -4z"/>
<path d="M3480 2961 c0 -5 -9 -13 -20 -16 -11 -3 -20 -11 -20 -16 0 -6 7 -6
19 1 11 5 31 10 45 10 14 0 28 5 31 10 4 6 12 7 18 4 8 -5 8 -3 0 7 -10 10
-16 10 -25 1 -14 -14 -42 -16 -33 -2 3 6 1 10 -4 10 -6 0 -11 -4 -11 -9z"/>
<path d="M4280 2944 c-10 -11 -10 -14 1 -14 8 0 20 4 27 9 11 7 11 9 -1 14 -9
3 -21 -1 -27 -9z"/>
<path d="M3616 2935 c-11 -30 -6 -40 10 -20 8 11 17 19 19 18 3 -2 5 0 6 5 1
15 -29 12 -35 -3z"/>
<path d="M3775 2940 c-3 -5 1 -10 9 -10 9 0 16 5 16 10 0 6 -4 10 -9 10 -6 0
-13 -4 -16 -10z"/>
<path d="M3736 2925 c4 -8 8 -15 10 -15 2 0 4 7 4 15 0 8 -4 15 -10 15 -5 0
-7 -7 -4 -15z"/>
<path d="M4212 2928 c3 -14 18 -28 31 -28 14 0 7 15 -13 28 -16 10 -20 10 -18
0z"/>
<path d="M4346 2925 c4 -8 11 -15 16 -15 6 0 5 6 -2 15 -7 8 -14 15 -16 15 -2
0 -1 -7 2 -15z"/>
<path d="M3860 2920 c0 -5 5 -10 10 -10 6 0 10 5 10 10 0 6 -4 10 -10 10 -5 0
-10 -4 -10 -10z"/>
<path d="M4130 2920 c-13 -8 -12 -10 3 -10 9 0 17 5 17 10 0 12 -1 12 -20 0z"/>
<path d="M3388 2904 c-16 -8 -28 -19 -28 -24 0 -11 29 -2 51 17 9 7 19 10 24
6 4 -5 5 -2 1 5 -9 15 -14 15 -48 -4z"/>
<path d="M3698 2913 c7 -3 16 -2 19 1 4 3 -2 6 -13 5 -11 0 -14 -3 -6 -6z"/>
<path d="M4480 2910 c20 -13 33 -13 25 0 -3 6 -14 10 -23 10 -15 0 -15 -2 -2
-10z"/>
<path d="M3525 2902 c-26 -4 -28 -5 -10 -12 20 -9 20 -9 0 -9 -25 -1 -64 -41
-40 -41 8 0 15 7 15 15 0 9 9 15 25 15 14 0 35 9 47 20 23 21 21 21 -37 12z"/>
<path d="M4070 2901 c0 -6 6 -11 14 -11 8 0 23 -3 33 -6 12 -5 15 -4 8 3 -15
16 -55 26 -55 14z"/>
<path d="M4385 2900 c-3 -5 -2 -10 4 -10 5 0 12 -8 14 -17 4 -14 5 -13 6 4 1
24 -14 39 -24 23z"/>
<path d="M3444 2881 c-18 -11 -42 -21 -55 -24 -20 -4 -19 -4 6 -6 27 -1 95 30
95 44 0 9 -15 5 -46 -14z"/>
<path d="M3658 2893 c7 -3 16 -2 19 1 4 3 -2 6 -13 5 -11 0 -14 -3 -6 -6z"/>
<path d="M3948 2893 c6 -2 18 -2 25 0 6 3 1 5 -13 5 -14 0 -19 -2 -12 -5z"/>
<path d="M3835 2879 c-4 -6 -13 -8 -21 -5 -17 6 -28 -10 -13 -20 6 -3 21 3 32
15 12 11 18 21 15 21 -4 0 -10 -5 -13 -11z"/>
<path d="M4430 2879 c0 -5 5 -7 10 -4 6 3 10 8 10 11 0 2 -4 4 -10 4 -5 0 -10
-5 -10 -11z"/>
<path d="M4515 2880 c3 -5 8 -10 11 -10 2 0 4 5 4 10 0 6 -5 10 -11 10 -5 0
-7 -4 -4 -10z"/>
<path d="M3627 2863 c4 -11 9 -11 22 -1 9 7 18 14 20 15 3 2 -7 2 -21 1 -17
-1 -24 -7 -21 -15z"/>
<path d="M3998 2873 c7 -3 16 -2 19 1 4 3 -2 6 -13 5 -11 0 -14 -3 -6 -6z"/>
<path d="M4200 2860 c0 -5 4 -10 9 -10 6 0 13 5 16 10 3 6 -1 10 -9 10 -9 0
-16 -4 -16 -10z"/>
<path d="M3260 2849 c0 -5 5 -7 10 -4 6 3 10 8 10 11 0 2 -4 4 -10 4 -5 0 -10
-5 -10 -11z"/>
<path d="M3580 2849 c0 -5 5 -7 10 -4 6 3 10 8 10 11 0 2 -4 4 -10 4 -5 0 -10
-5 -10 -11z"/>
<path d="M3748 2853 c6 -2 18 -2 25 0 6 3 1 5 -13 5 -14 0 -19 -2 -12 -5z"/>
<path d="M3866 2845 c-3 -8 -2 -15 3 -15 5 0 14 7 21 15 10 12 10 15 -3 15 -8
0 -17 -7 -21 -15z"/>
<path d="M4090 2850 c0 -5 5 -10 11 -10 5 0 7 5 4 10 -3 6 -8 10 -11 10 -2 0
-4 -4 -4 -10z"/>
<path d="M4350 2856 c0 -2 7 -7 16 -10 8 -3 12 -2 9 4 -6 10 -25 14 -25 6z"/>
<path d="M3296 2841 c-5 -7 5 -11 26 -12 18 0 27 -3 21 -6 -7 -2 -13 -9 -13
-14 0 -14 34 -10 56 7 19 15 18 15 -3 11 -12 -3 -23 -1 -25 3 -5 14 -55 23
-62 11z"/>
<path d="M3610 2831 c0 -5 -8 -12 -17 -14 -11 -3 -7 -5 10 -6 18 -1 27 4 27
14 0 8 -4 15 -10 15 -5 0 -10 -4 -10 -9z"/>
<path d="M3643 2830 c4 -17 47 -27 47 -11 0 5 12 12 28 14 27 4 27 4 -3 6 -17
0 -37 -5 -43 -11 -10 -10 -15 -10 -23 2 -9 13 -10 13 -6 0z"/>
<path d="M3775 2830 c-3 -6 1 -7 9 -4 18 7 21 14 7 14 -6 0 -13 -4 -16 -10z"/>
<path d="M4236 2832 c-3 -6 -1 -14 5 -17 15 -10 25 3 12 16 -7 7 -13 7 -17 1z"/>
<path d="M3205 2801 c-19 -14 -34 -31 -35 -37 0 -18 -27 -37 -32 -23 -2 7 -12
9 -27 4 -15 -5 -20 -10 -13 -17 6 -6 7 -21 2 -39 -8 -27 -4 -25 43 23 29 29
60 54 71 56 29 5 14 -19 -24 -40 -30 -15 -32 -18 -12 -18 16 0 21 -4 16 -12
-6 -10 -4 -10 7 0 7 6 21 12 31 12 10 0 18 4 18 10 0 5 -7 7 -15 4 -8 -4 -15
-2 -15 4 0 18 53 25 66 8 6 -9 17 -16 24 -16 7 0 10 -7 6 -16 -4 -12 4 -9 28
10 19 14 41 26 48 27 7 0 4 4 -7 8 -11 5 -24 5 -30 1 -15 -11 -55 -19 -55 -11
0 4 -18 15 -40 25 -22 10 -40 22 -40 27 0 16 32 23 51 10 15 -9 19 -8 19 3 0
26 -48 25 -85 -3z m142 -77 c-3 -3 -12 -4 -19 -1 -8 3 -5 6 6 6 11 1 17 -2 13
-5z"/>
<path d="M4272 2819 c2 -6 8 -10 13 -10 5 0 11 4 13 10 2 6 -4 11 -13 11 -9 0
-15 -5 -13 -11z"/>
<path d="M3444 2805 c-16 -12 -17 -14 -3 -15 9 0 19 7 23 15 7 19 5 19 -20 0z"/>
<path d="M3480 2816 c0 -2 7 -7 16 -10 8 -3 12 -2 9 4 -6 10 -25 14 -25 6z"/>
<path d="M3910 2810 c0 -9 31 -30 44 -30 16 0 3 18 -19 28 -14 7 -25 8 -25 2z"/>
<path d="M3994 2805 c24 -18 39 -20 34 -2 -3 6 -15 13 -29 15 -23 2 -23 2 -5
-13z"/>
<path d="M3305 2800 c-3 -5 -1 -10 4 -10 6 0 11 5 11 10 0 6 -2 10 -4 10 -3 0
-8 -4 -11 -10z"/>
<path d="M3390 2785 c0 -8 5 -15 11 -15 5 0 8 4 5 9 -4 5 0 12 6 14 8 3 6 6
-4 6 -10 1 -18 -6 -18 -14z"/>
<path d="M4145 2790 c-3 -5 1 -10 9 -10 9 0 16 5 16 10 0 6 -4 10 -9 10 -6 0
-13 -4 -16 -10z"/>
<path d="M3355 2780 c-3 -5 -1 -10 4 -10 6 0 11 5 11 10 0 6 -2 10 -4 10 -3 0
-8 -4 -11 -10z"/>
<path d="M3500 2780 c-12 -7 -12 -12 -2 -22 9 -9 12 -9 12 1 0 8 7 11 20 8 11
-3 23 -1 26 4 3 5 1 9 -5 9 -5 0 -15 2 -23 5 -7 3 -20 1 -28 -5z"/>
<path d="M3570 2778 c0 -4 9 -8 20 -8 11 0 20 4 20 8 0 4 -9 8 -20 8 -11 0
-20 -4 -20 -8z"/>
<path d="M3065 2770 c-3 -5 3 -10 15 -10 12 0 18 5 15 10 -3 6 -10 10 -15 10
-5 0 -12 -4 -15 -10z"/>
<path d="M3970 2776 c0 -2 7 -9 15 -16 9 -7 15 -8 15 -2 0 5 -7 12 -15 16 -8
3 -15 4 -15 2z"/>
<path d="M3710 2749 c0 -5 5 -7 10 -4 6 3 10 8 10 11 0 2 -4 4 -10 4 -5 0 -10
-5 -10 -11z"/>
<path d="M4084 2745 c-10 -8 -14 -15 -8 -15 6 0 17 7 24 15 16 19 9 19 -16 0z"/>
<path d="M3550 2729 c0 -5 5 -7 10 -4 6 3 10 8 10 11 0 2 -4 4 -10 4 -5 0 -10
-5 -10 -11z"/>
<path d="M3603 2733 c9 -2 23 -2 30 0 6 3 -1 5 -18 5 -16 0 -22 -2 -12 -5z"/>
<path d="M3656 2725 c-3 -8 -1 -15 4 -15 6 0 10 5 10 11 0 5 4 8 9 4 5 -3 12
-1 16 5 3 5 -3 10 -13 10 -11 0 -22 -7 -26 -15z"/>
<path d="M3515 2700 c-3 -5 -2 -10 4 -10 5 0 13 5 16 10 3 6 2 10 -4 10 -5 0
-13 -4 -16 -10z"/>
<path d="M3560 2700 c0 -5 4 -10 9 -10 6 0 13 5 16 10 3 6 -1 10 -9 10 -9 0
-16 -4 -16 -10z"/>
<path d="M3356 2679 c-14 -11 -26 -16 -26 -10 0 13 -36 15 -44 3 -3 -5 -30 -7
-60 -4 -66 5 -106 -3 -106 -23 0 -11 8 -13 33 -8 17 3 36 11 40 17 6 8 10 8
13 0 3 -7 13 -10 23 -7 10 3 22 0 25 -6 4 -6 15 -2 28 11 15 15 22 17 28 8 6
-10 15 -10 38 -2 17 6 33 8 36 5 3 -4 6 1 6 11 0 10 5 14 12 10 7 -4 8 -3 4 4
-10 17 -20 15 -50 -9z"/>
<path d="M3437 2676 c-4 -10 -1 -13 9 -9 15 6 19 23 5 23 -5 0 -11 -7 -14 -14z"/>
<path d="M3930 2680 c-8 -5 -12 -11 -9 -14 3 -3 14 1 25 9 21 16 8 20 -16 5z"/>
<path d="M3635 2670 c3 -5 14 -10 23 -10 15 0 15 2 2 10 -20 13 -33 13 -25 0z"/>
<path d="M3538 2663 c7 -3 16 -2 19 1 4 3 -2 6 -13 5 -11 0 -14 -3 -6 -6z"/>
<path d="M3451 2634 c-19 -20 -21 -28 -12 -37 10 -9 12 -9 9 3 -2 8 7 19 20
25 12 5 22 15 22 22 0 20 -12 15 -39 -13z"/>
<path d="M3084 2636 c-3 -9 -4 -22 -1 -30 3 -9 -4 -21 -19 -30 -21 -15 -24
-15 -24 -1 0 8 -4 15 -9 15 -15 0 -23 -18 -11 -25 5 -3 10 -18 10 -32 0 -19 4
-24 16 -19 9 3 18 6 20 6 3 0 2 5 -1 10 -3 6 2 10 11 10 14 0 15 -3 6 -12 -7
-7 -12 -15 -12 -18 0 -12 75 -8 90 5 11 10 27 11 57 6 23 -5 41 -5 38 -2 -2 4
14 8 35 8 30 2 38 -1 33 -13 -8 -22 23 -17 52 8 32 28 32 38 -2 39 -17 1 -21
3 -10 6 21 5 23 30 2 30 -8 0 -15 -4 -15 -9 0 -5 -4 -7 -9 -4 -5 3 -11 -1 -15
-9 -7 -18 -33 -20 -39 -2 -3 9 -9 9 -25 0 -11 -6 -23 -9 -27 -5 -9 10 -65 11
-65 1 0 -4 -17 -8 -39 -7 -33 0 -38 3 -34 19 3 11 10 19 15 19 6 0 4 7 -3 17
-8 9 -12 18 -11 20 2 3 1 7 -2 10 -3 3 -8 -2 -12 -11z m46 -96 c0 -5 -4 -10
-10 -10 -5 0 -10 5 -10 10 0 6 5 10 10 10 6 0 10 -4 10 -10z"/>
<path d="M3298 2633 c7 -3 16 -2 19 1 4 3 -2 6 -13 5 -11 0 -14 -3 -6 -6z"/>
<path d="M4150 2630 c-9 -6 -10 -10 -3 -10 6 0 15 5 18 10 8 12 4 12 -15 0z"/>
<path d="M3610 2619 c0 -5 5 -7 10 -4 6 3 10 8 10 11 0 2 -4 4 -10 4 -5 0 -10
-5 -10 -11z"/>
<path d="M3800 2620 c0 -5 5 -10 10 -10 6 0 10 5 10 10 0 6 -4 10 -10 10 -5 0
-10 -4 -10 -10z"/>
<path d="M3665 2600 c3 -5 8 -10 11 -10 2 0 4 5 4 10 0 6 -5 10 -11 10 -5 0
-7 -4 -4 -10z"/>
<path d="M3555 2570 c-8 -13 5 -13 25 0 13 8 13 10 -2 10 -9 0 -20 -4 -23 -10z"/>
<path d="M3596 2545 c4 -8 8 -15 10 -15 2 0 4 7 4 15 0 8 -4 15 -10 15 -5 0
-7 -7 -4 -15z"/>
<path d="M3448 2543 c7 -3 16 -2 19 1 4 3 -2 6 -13 5 -11 0 -14 -3 -6 -6z"/>
<path d="M2970 2524 c0 -8 5 -12 10 -9 6 3 10 10 10 16 0 5 -4 9 -10 9 -5 0
-10 -7 -10 -16z"/>
<path d="M4425 2520 c-3 -5 3 -10 14 -10 12 0 21 5 21 10 0 6 -6 10 -14 10 -8
0 -18 -4 -21 -10z"/>
<path d="M3005 2507 c-4 -10 -5 -21 -1 -24 10 -10 18 4 13 24 -4 17 -4 17 -12
0z"/>
<path d="M3470 2500 c0 -5 7 -10 15 -10 8 0 15 5 15 10 0 6 -7 10 -15 10 -8 0
-15 -4 -15 -10z"/>
<path d="M3002 2435 c-17 -37 -15 -42 8 -17 21 22 26 42 12 42 -5 0 -14 -11
-20 -25z"/>
<path d="M3160 2444 c-23 -8 -28 -13 -15 -13 30 -1 65 10 65 20 0 11 -5 10
-50 -7z"/>
<path d="M3248 2453 c7 -3 16 -2 19 1 4 3 -2 6 -13 5 -11 0 -14 -3 -6 -6z"/>
<path d="M3505 3570 c-3 -5 1 -10 10 -10 9 0 13 5 10 10 -3 6 -8 10 -10 10 -2
0 -7 -4 -10 -10z"/>
<path d="M3535 3550 c-3 -5 1 -10 10 -10 9 0 13 5 10 10 -3 6 -8 10 -10 10 -2
0 -7 -4 -10 -10z"/>
<path d="M3900 3575 c-10 -12 -10 -15 4 -15 9 0 16 7 16 15 0 8 -2 15 -4 15
-2 0 -9 -7 -16 -15z"/>
<path d="M3050 3189 c0 -5 7 -9 15 -9 8 0 18 0 22 -1 4 0 9 3 10 8 2 4 -8 9
-22 9 -14 1 -25 -2 -25 -7z"/>
<path d="M3210 3215 c-14 -8 -19 -14 -12 -15 7 0 10 -4 7 -10 -11 -17 7 -11
22 8 13 16 14 15 8 -5 -4 -14 -2 -23 4 -23 6 0 11 5 11 11 0 6 7 9 15 5 8 -3
15 -1 15 4 0 6 -7 10 -15 10 -8 0 -15 7 -15 15 0 18 -8 18 -40 0z"/>
<path d="M2715 5390 c-3 -5 3 -10 14 -10 12 0 21 5 21 10 0 6 -6 10 -14 10 -8
0 -18 -4 -21 -10z"/>
<path d="M2782 5389 c2 -6 7 -10 11 -10 4 1 15 1 25 1 14 0 15 2 2 10 -20 13
-43 13 -38 -1z"/>
<path d="M1374 4879 c-3 -6 -1 -16 5 -22 8 -8 11 -5 11 11 0 24 -5 28 -16 11z"/>
<path d="M1330 4219 c0 -5 5 -7 10 -4 6 3 10 8 10 11 0 2 -4 4 -10 4 -5 0 -10
-5 -10 -11z"/>
<path d="M1300 4094 c0 -8 5 -12 10 -9 6 4 8 11 5 16 -9 14 -15 11 -15 -7z"/>
<path d="M1331 3976 c-8 -9 -11 -19 -7 -23 9 -9 29 13 24 27 -2 8 -8 7 -17 -4z"/>
<path d="M1295 3760 c3 -5 8 -10 11 -10 2 0 4 5 4 10 0 6 -5 10 -11 10 -5 0
-7 -4 -4 -10z"/>
<path d="M1342 3728 c-15 -15 -16 -31 0 -26 6 2 12 12 14 21 3 20 2 21 -14 5z"/>
<path d="M1292 3702 c-7 -2 -10 -8 -6 -13 3 -5 0 -9 -5 -9 -13 0 -15 -27 -2
-34 5 -3 8 2 7 11 0 9 8 19 20 22 17 5 19 9 10 17 -6 6 -17 9 -24 6z"/>
<path d="M1333 3624 c4 -4 2 -13 -3 -19 -8 -9 -5 -14 8 -17 22 -6 25 29 3 37
-9 3 -12 3 -8 -1z"/>
<path d="M1285 3529 c-9 -14 -2 -20 14 -10 8 6 9 11 3 15 -6 3 -14 1 -17 -5z"/>
<path d="M1316 3503 c-6 -14 -5 -15 5 -6 7 7 10 15 7 18 -3 3 -9 -2 -12 -12z"/>
<path d="M1290 3475 c0 -8 4 -15 10 -15 5 0 7 7 4 15 -4 8 -8 15 -10 15 -2 0
-4 -7 -4 -15z"/>
<path d="M1340 3419 c0 -5 5 -7 10 -4 6 3 10 8 10 11 0 2 -4 4 -10 4 -5 0 -10
-5 -10 -11z"/>
<path d="M1253 3363 c-15 -5 -18 -33 -4 -33 8 0 25 30 19 35 -2 1 -9 0 -15 -2z"/>
<path d="M1227 3299 c7 -7 15 -10 18 -7 3 3 -2 9 -12 12 -14 6 -15 5 -6 -5z"/>
<path d="M1295 3280 c-3 -5 -1 -10 4 -10 6 0 11 5 11 10 0 6 -2 10 -4 10 -3 0
-8 -4 -11 -10z"/>
<path d="M1263 3253 c-20 -7 -15 -22 7 -20 20 1 27 12 13 20 -5 2 -14 2 -20 0z"/>
<path d="M1300 3219 c0 -5 5 -7 10 -4 6 3 10 8 10 11 0 2 -4 4 -10 4 -5 0 -10
-5 -10 -11z"/>
<path d="M1286 3144 c-5 -14 -4 -15 9 -4 17 14 19 20 6 20 -5 0 -12 -7 -15
-16z"/>
<path d="M1270 3111 c0 -17 18 -21 24 -6 3 9 0 15 -9 15 -8 0 -15 -4 -15 -9z"/>
<path d="M1316 3104 c-5 -14 -4 -15 9 -4 17 14 19 20 6 20 -5 0 -12 -7 -15
-16z"/>
<path d="M1260 3059 c0 -5 5 -7 10 -4 6 3 10 8 10 11 0 2 -4 4 -10 4 -5 0 -10
-5 -10 -11z"/>
<path d="M1328 3033 c7 -3 16 -2 19 1 4 3 -2 6 -13 5 -11 0 -14 -3 -6 -6z"/>
<path d="M1230 3000 c0 -5 5 -10 10 -10 6 0 10 5 10 10 0 6 -4 10 -10 10 -5 0
-10 -4 -10 -10z"/>
<path d="M1272 2948 c-7 -7 -12 -19 -11 -27 0 -11 2 -12 6 -3 2 6 9 10 14 7 5
-4 6 1 3 9 -3 8 2 16 13 19 13 3 14 5 3 6 -9 0 -21 -4 -28 -11z"/>
<path d="M1229 2853 c-12 -14 -12 -15 0 -9 8 5 16 3 22 -5 4 -7 10 -11 13 -9
2 3 -1 13 -9 23 -12 16 -13 16 -26 0z"/>
<path d="M1168 2803 c7 -3 16 -2 19 1 4 3 -2 6 -13 5 -11 0 -14 -3 -6 -6z"/>
<path d="M1180 2749 c0 -5 5 -7 10 -4 6 3 10 8 10 11 0 2 -4 4 -10 4 -5 0 -10
-5 -10 -11z"/>
<path d="M1195 2700 c3 -5 8 -10 11 -10 2 0 4 5 4 10 0 6 -5 10 -11 10 -5 0
-7 -4 -4 -10z"/>
<path d="M1170 2659 c0 -5 5 -7 10 -4 6 3 10 8 10 11 0 2 -4 4 -10 4 -5 0 -10
-5 -10 -11z"/>
<path d="M1192 2606 c7 -8 15 -12 17 -11 5 6 -10 25 -20 25 -5 0 -4 -6 3 -14z"/>
<path d="M1165 2550 c-3 -6 1 -7 9 -4 18 7 21 14 7 14 -6 0 -13 -4 -16 -10z"/>
<path d="M1150 2440 c-8 -5 -12 -11 -9 -14 2 -3 11 -1 19 4 8 5 12 11 9 14 -2
3 -11 1 -19 -4z"/>
</g>
</svg>
